<svg width="208" height="200" viewBox="0 0 208 200" fill="none" xmlns="http://www.w3.org/2000/svg">
<path d="M123 185C169.944 185 208 146.944 208 100C208 53.0558 169.944 15 123 15C76.0558 15 38 53.0558 38 100C38 146.944 76.0558 185 123 185Z" fill="#6159A9"/>
<path d="M66.2037 178.536C65.4622 178.536 64.7442 178.276 64.1753 177.8C63.6064 177.325 63.2229 176.665 63.0918 175.935C62.9606 175.205 63.0903 174.452 63.4581 173.808C63.8259 173.165 64.4084 172.671 65.1037 172.413C71.1797 170.158 76.2517 164.076 78.3377 156.539C79.5742 151.847 79.6665 146.926 78.607 142.191C77.5474 137.455 75.3669 133.043 72.2487 129.325C55.5987 108.541 66.4707 97.308 66.9417 96.84C67.2324 96.5391 67.5801 96.2989 67.9644 96.1335C68.3487 95.968 68.7621 95.8805 69.1805 95.876C69.5989 95.8716 70.014 95.9503 70.4018 96.1075C70.7895 96.2648 71.1422 96.4975 71.4393 96.7922C71.7363 97.0868 71.972 97.4375 72.1324 97.824C72.2929 98.2104 72.375 98.6249 72.3741 99.0433C72.3731 99.4617 72.289 99.8758 72.1267 100.261C71.9644 100.647 71.7272 100.997 71.4287 101.29C71.0677 101.69 64.3497 109.356 77.1817 125.372C80.9307 129.868 83.5456 135.198 84.8069 140.915C86.0681 146.631 85.9388 152.567 84.4297 158.223C81.7717 167.823 75.3667 175.345 67.3007 178.337C66.9498 178.468 66.5783 178.536 66.2037 178.536Z" fill="#E5E5E5"/>
<path d="M121.241 199.55C120.5 199.55 119.782 199.29 119.213 198.815C118.644 198.339 118.26 197.679 118.129 196.949C117.998 196.219 118.128 195.466 118.496 194.822C118.863 194.179 119.446 193.685 120.141 193.427C126.217 191.172 131.288 185.09 133.375 177.553C134.61 172.861 134.701 167.941 133.641 163.207C132.581 158.472 130.401 154.061 127.284 150.343C110.636 129.559 121.508 118.33 121.979 117.856C122.569 117.261 123.372 116.924 124.21 116.921C125.048 116.917 125.853 117.247 126.448 117.837C127.043 118.427 127.38 119.229 127.383 120.068C127.387 120.906 127.057 121.711 126.467 122.306C126.106 122.706 119.388 130.372 132.22 146.39C135.968 150.885 138.582 156.213 139.843 161.927C141.104 167.642 140.976 173.575 139.469 179.23C136.811 188.83 130.408 196.352 122.342 199.344C121.99 199.476 121.618 199.544 121.242 199.544L121.241 199.55Z" fill="#E5E5E5"/>
<path d="M69.8909 99.079C93.2994 99.079 112.276 76.8025 112.276 49.323C112.276 21.8435 93.2994 -0.432983 69.8909 -0.432983C46.4823 -0.432983 27.5059 21.8435 27.5059 49.323C27.5059 76.8025 46.4823 99.079 69.8909 99.079Z" fill="#F8B62B"/>
<path d="M79.8898 0.964966C61.3148 6.24797 47.5098 25.88 47.5098 49.315C47.5098 72.75 61.3098 92.381 79.8928 97.664C98.4738 92.386 112.276 72.745 112.276 49.315C112.276 25.885 98.4738 6.24797 79.8898 0.964966Z" fill="#F9D12F"/>
<path d="M101.941 52.484C101.103 52.484 100.3 52.1511 99.707 51.5585C99.1144 50.9659 98.7815 50.1621 98.7815 49.324C98.7815 30.324 85.8215 14.86 69.8905 14.86C69.4755 14.86 69.0646 14.7783 68.6812 14.6195C68.2978 14.4607 67.9494 14.2279 67.656 13.9345C67.3626 13.6411 67.1298 13.2927 66.971 12.9093C66.8122 12.5259 66.7305 12.115 66.7305 11.7C66.7305 11.2851 66.8122 10.8741 66.971 10.4908C67.1298 10.1074 67.3626 9.75902 67.656 9.46558C67.9494 9.17215 68.2978 8.93938 68.6812 8.78058C69.0646 8.62177 69.4755 8.54004 69.8905 8.54004C89.3035 8.54004 105.101 26.84 105.101 49.324C105.101 50.1621 104.769 50.9659 104.176 51.5585C103.583 52.1511 102.78 52.484 101.941 52.484Z" fill="#FFECA0"/>
<path d="M124.929 120.094C148.338 120.094 167.314 97.8175 167.314 70.338C167.314 42.8586 148.338 20.582 124.929 20.582C101.52 20.582 82.5439 42.8586 82.5439 70.338C82.5439 97.8175 101.52 120.094 124.929 120.094Z" fill="#1BA4FC"/>
<path d="M134.93 21.9871C116.348 27.2651 102.548 46.9041 102.548 70.3381C102.548 93.7721 116.348 113.409 134.931 118.688C153.512 113.41 167.314 93.7691 167.314 70.3381C167.314 46.9071 153.51 27.2651 134.93 21.9871Z" fill="#2EC3FC"/>
<path d="M173.089 144.373L164.736 152.726L173.089 161.079L181.442 152.726L173.089 144.373Z" fill="#FD748C"/>
<path d="M8.35305 3.34702L0 11.7001L8.35305 20.0531L16.7061 11.7001L8.35305 3.34702Z" fill="#FD748C"/>
<path d="M177.99 16.808C177.128 16.808 176.286 16.5525 175.569 16.0737C174.853 15.595 174.294 14.9145 173.964 14.1183C173.635 13.3222 173.548 12.4462 173.717 11.601C173.885 10.7558 174.3 9.97947 174.909 9.37013C175.518 8.76079 176.295 8.34583 177.14 8.17771C177.985 8.0096 178.861 8.09588 179.657 8.42565C180.453 8.75542 181.134 9.31387 181.613 10.0304C182.091 10.7469 182.347 11.5893 182.347 12.451C182.347 13.6065 181.888 14.7148 181.071 15.5319C180.254 16.349 179.145 16.808 177.99 16.808Z" fill="#FD852B"/>
<path d="M177.99 33.0661C177.128 33.0661 176.286 32.8105 175.569 32.3318C174.853 31.853 174.294 31.1725 173.964 30.3764C173.635 29.5803 173.548 28.7042 173.717 27.859C173.885 27.0139 174.3 26.2375 174.909 25.6282C175.518 25.0189 176.295 24.6039 177.14 24.4358C177.985 24.2677 178.861 24.3539 179.657 24.6837C180.453 25.0135 181.134 25.5719 181.613 26.2884C182.091 27.0049 182.347 27.8473 182.347 28.7091C182.347 29.8646 181.888 30.9728 181.071 31.7899C180.254 32.607 179.145 33.0661 177.99 33.0661Z" fill="#FD852B"/>
<path d="M169.861 24.937C168.999 24.937 168.157 24.6815 167.44 24.2027C166.724 23.724 166.165 23.0435 165.836 22.2474C165.506 21.4512 165.42 20.5752 165.588 19.73C165.756 18.8848 166.171 18.1085 166.78 17.4992C167.389 16.8898 168.166 16.4749 169.011 16.3067C169.856 16.1386 170.732 16.2249 171.528 16.5547C172.324 16.8845 173.005 17.4429 173.484 18.1594C173.962 18.8759 174.218 19.7183 174.218 20.58C174.218 21.7356 173.759 22.8438 172.942 23.6609C172.125 24.478 171.016 24.937 169.861 24.937Z" fill="#FD852B"/>
<path d="M186.119 24.937C185.257 24.937 184.415 24.6815 183.698 24.2027C182.982 23.724 182.423 23.0435 182.093 22.2474C181.764 21.4512 181.677 20.5752 181.845 19.73C182.014 18.8848 182.429 18.1085 183.038 17.4992C183.647 16.8898 184.424 16.4749 185.269 16.3067C186.114 16.1386 186.99 16.2249 187.786 16.5547C188.582 16.8845 189.263 17.4429 189.741 18.1594C190.22 18.8759 190.476 19.7183 190.476 20.58C190.476 21.7356 190.017 22.8438 189.2 23.6609C188.382 24.478 187.274 24.937 186.119 24.937Z" fill="#FD852B"/>
<path d="M29.3951 118.563C28.5329 118.563 27.69 118.308 26.973 117.829C26.2561 117.35 25.6973 116.669 25.3675 115.873C25.0377 115.076 24.9516 114.199 25.1203 113.354C25.2889 112.508 25.7046 111.732 26.3147 111.123C26.9249 110.513 27.7021 110.099 28.5479 109.932C29.3937 109.765 30.2702 109.852 31.0663 110.183C31.8624 110.514 32.5423 111.074 33.0201 111.792C33.4978 112.509 33.7519 113.353 33.7501 114.215C33.7477 115.369 33.2879 116.474 32.4715 117.289C31.6551 118.104 30.5488 118.562 29.3951 118.563Z" fill="#FD852B"/>
<path d="M29.3951 134.833C28.533 134.833 27.6902 134.578 26.9732 134.099C26.2563 133.62 25.6976 132.94 25.3677 132.143C25.0378 131.347 24.9517 130.47 25.1201 129.625C25.2886 128.779 25.7041 128.003 26.314 127.393C26.924 126.784 27.701 126.37 28.5467 126.202C29.3924 126.035 30.2687 126.122 31.0649 126.452C31.861 126.783 32.5411 127.343 33.0191 128.06C33.4971 128.778 33.7515 129.621 33.7501 130.483C33.7483 131.637 33.2887 132.743 32.4722 133.559C31.6558 134.374 30.5491 134.832 29.3951 134.833Z" fill="#FD852B"/>
<path d="M21.2661 126.699C20.4044 126.699 19.5621 126.443 18.8459 125.964C18.1296 125.485 17.5714 124.804 17.242 124.007C16.9126 123.211 16.8267 122.335 16.9952 121.49C17.1637 120.645 17.5791 119.869 18.1887 119.26C18.7983 118.651 19.5748 118.236 20.4201 118.068C21.2653 117.901 22.1413 117.987 22.9373 118.317C23.7333 118.648 24.4135 119.206 24.892 119.923C25.3704 120.64 25.6255 121.482 25.6251 122.344C25.6249 122.916 25.5119 123.483 25.2927 124.011C25.0735 124.54 24.7524 125.02 24.3476 125.424C23.9428 125.829 23.4624 126.149 22.9336 126.368C22.4049 126.587 21.8383 126.699 21.2661 126.699Z" fill="#FD852B"/>
<path d="M37.5251 126.699C36.6631 126.7 35.8201 126.445 35.1029 125.967C34.3857 125.489 33.8265 124.809 33.496 124.012C33.1655 123.216 33.0786 122.34 33.2463 121.494C33.4141 120.649 33.8288 119.872 34.4382 119.262C35.0475 118.652 35.824 118.237 36.6695 118.069C37.5149 117.901 38.3913 117.987 39.1877 118.317C39.9841 118.647 40.6647 119.205 41.1434 119.922C41.6222 120.639 41.8775 121.482 41.8771 122.344C41.8766 123.498 41.418 124.605 40.602 125.422C39.7861 126.238 38.6794 126.698 37.5251 126.699Z" fill="#FD852B"/>
<path d="M156.977 73.496C156.139 73.496 155.335 73.163 154.742 72.5704C154.15 71.9778 153.817 71.174 153.817 70.336C153.817 51.336 140.857 35.874 124.926 35.874C124.088 35.874 123.284 35.541 122.691 34.9484C122.099 34.3558 121.766 33.552 121.766 32.714C121.766 31.8759 122.099 31.0721 122.691 30.4795C123.284 29.8869 124.088 29.554 124.926 29.554C144.339 29.554 160.137 47.854 160.137 70.338C160.136 71.1757 159.803 71.9789 159.21 72.5711C158.618 73.1633 157.814 73.496 156.977 73.496Z" fill="#A5E6FF"/>
</svg>
