<svg width="193" height="196" viewBox="0 0 193 196" fill="none" xmlns="http://www.w3.org/2000/svg">
<path d="M108 196C154.944 196 193 157.944 193 111C193 64.0558 154.944 26 108 26C61.0558 26 23 64.0558 23 111C23 157.944 61.0558 196 108 196Z" fill="#6159A9"/>
<path d="M128.928 76.799H6.07129V169.799H128.928V76.799Z" fill="#F8B62B"/>
<path d="M116.099 88.219H6.07129V169.799H116.099V88.219Z" fill="#F9D12F"/>
<path d="M135 47.522H0V76.799H135V47.522Z" fill="#F9D12F"/>
<path d="M75.8986 47.522H59.0996V169.799H75.8986V47.522Z" fill="#FD748C"/>
<path d="M6.07227 113.311L6.07227 130.11H128.929V113.311H6.07227Z" fill="#FD748C"/>
<path d="M67.4992 47.522C67.4992 47.522 34.4992 34.79 36.2992 16.795L14.6992 32.16C14.6992 32.16 33.8992 50.045 67.4992 47.522Z" fill="#FD748C"/>
<path d="M67.499 47.522C67.499 47.522 69.299 25.19 86.699 16.795C104.099 8.4 96.299 0 96.299 0L116.099 12C113.95 15.7647 111.015 19.0229 107.495 21.5534C103.975 24.084 99.9523 25.8276 95.699 26.666C81.299 29.4 68.699 37.445 67.499 47.522Z" fill="#FD748C"/>
<path d="M116.099 113.313V130.112H128.927V113.313H116.099Z" fill="#EC4D85"/>
<path d="M134.998 47.522H116.099V76.799H134.998V47.522Z" fill="#F8B62B"/>
<path d="M75.8986 76.799H59.0996V88.0199H75.8986V76.799Z" fill="#EC4D85"/>
<path d="M75.8986 130.112H59.0996V141.333H75.8986V130.112Z" fill="#EC4D85"/>
</svg>
