<svg width="208" height="179" viewBox="0 0 208 179" fill="none" xmlns="http://www.w3.org/2000/svg">
<path d="M123 179C169.944 179 208 140.944 208 94C208 47.0558 169.944 9 123 9C76.0558 9 38 47.0558 38 94C38 140.944 76.0558 179 123 179Z" fill="#6159A9"/>
<path d="M71.6118 102.702C77.2099 95.8128 80.2983 87.2242 80.3695 78.3475C80.4406 69.4708 77.4903 60.8339 72.0033 53.8558C66.5163 46.8777 58.8189 41.9735 50.1759 39.9489C41.5329 37.9243 32.4582 38.8998 24.4429 42.7151C16.4277 46.5304 9.94847 52.9585 6.06991 60.9433C2.19135 68.9282 1.1441 77.9948 3.10024 86.6536C5.05637 95.3124 9.89954 103.048 16.834 108.59C23.7685 114.132 32.3818 117.151 41.2588 117.15H110.77V102.702H71.6118Z" fill="#EC4D85"/>
<path d="M71.6128 102.702H61.9208C66.3262 97.2852 69.2011 90.7878 70.247 83.8845C71.2929 76.9812 70.4716 69.9238 67.8683 63.4452C65.2651 56.9666 60.9749 51.303 55.4433 47.0427C49.9117 42.7824 43.3404 40.0806 36.4118 39.218C26.5405 40.458 17.5126 45.4128 11.1654 53.074C4.81826 60.7352 1.62887 70.5271 2.24637 80.4568C2.86386 90.3865 7.24182 99.7079 14.4893 106.524C21.7367 113.34 31.3089 117.138 41.2578 117.145H103.453V102.702H71.6128Z" fill="#FD748C"/>
<path d="M131.735 59.754C130.986 59.754 130.253 59.5317 129.629 59.1151C129.006 58.6985 128.52 58.1065 128.233 57.4138C127.946 56.721 127.871 55.9588 128.017 55.2234C128.163 54.488 128.525 53.8125 129.055 53.2824C129.585 52.7522 130.26 52.3911 130.996 52.2448C131.731 52.0986 132.493 52.1736 133.186 52.4606C133.879 52.7475 134.471 53.2334 134.887 53.8568C135.304 54.4803 135.526 55.2132 135.526 55.963C135.526 56.9684 135.127 57.9327 134.416 58.6436C133.705 59.3546 132.741 59.754 131.735 59.754Z" fill="#FD852B"/>
<path d="M131.735 74.396C130.986 74.396 130.253 74.1736 129.629 73.7571C129.006 73.3405 128.52 72.7484 128.233 72.0557C127.946 71.363 127.871 70.6008 128.017 69.8654C128.163 69.13 128.525 68.4545 129.055 67.9243C129.585 67.3941 130.26 67.0331 130.996 66.8868C131.731 66.7405 132.493 66.8156 133.186 67.1025C133.879 67.3895 134.471 67.8754 134.887 68.4988C135.304 69.1222 135.526 69.8552 135.526 70.605C135.526 71.6104 135.127 72.5747 134.416 73.2856C133.705 73.9966 132.741 74.396 131.735 74.396Z" fill="#FD852B"/>
<path d="M124.419 67.075C123.669 67.0733 122.937 66.8494 122.315 66.4318C121.693 66.0141 121.208 65.4214 120.923 64.7286C120.637 64.0357 120.563 63.2737 120.711 62.5389C120.858 61.8042 121.22 61.1295 121.75 60.6002C122.281 60.0709 122.956 59.7108 123.691 59.5652C124.427 59.4197 125.188 59.4953 125.881 59.7825C126.573 60.0697 127.164 60.5556 127.58 61.1788C127.997 61.802 128.219 62.5346 128.219 63.284C128.219 63.7826 128.12 64.2763 127.929 64.7369C127.738 65.1974 127.458 65.6157 127.105 65.9679C126.752 66.32 126.333 66.5991 125.872 66.789C125.411 66.979 124.917 67.0762 124.419 67.075Z" fill="#FD852B"/>
<path d="M139.056 67.0749C138.306 67.0749 137.573 66.8526 136.949 66.436C136.326 66.0195 135.84 65.4274 135.553 64.7347C135.266 64.042 135.191 63.2797 135.337 62.5443C135.484 61.809 135.845 61.1335 136.375 60.6033C136.905 60.0731 137.581 59.712 138.316 59.5658C139.051 59.4195 139.814 59.4946 140.506 59.7815C141.199 60.0684 141.791 60.5543 142.208 61.1778C142.624 61.8012 142.847 62.5341 142.847 63.2839C142.847 64.2894 142.447 65.2536 141.736 65.9646C141.025 66.6755 140.061 67.0749 139.056 67.0749Z" fill="#FD852B"/>
<path d="M11.1133 8.48398C10.3635 8.48398 9.63053 8.26164 9.0071 7.84508C8.38367 7.42852 7.89777 6.83645 7.61084 6.14373C7.32391 5.45102 7.24883 4.68877 7.39511 3.95339C7.54139 3.21801 7.90244 2.54252 8.43263 2.01234C8.96281 1.48216 9.6383 1.1211 10.3737 0.974822C11.1091 0.828546 11.8713 0.90362 12.564 1.19055C13.2567 1.47748 13.8488 1.96339 14.2654 2.58681C14.6819 3.21024 14.9043 3.94319 14.9043 4.69298C14.9043 5.69841 14.5049 6.66267 13.7939 7.37362C13.083 8.08457 12.1187 8.48398 11.1133 8.48398Z" fill="#FD852B"/>
<path d="M11.1132 23.133C10.3636 23.1328 9.63081 22.9104 9.00756 22.4938C8.38431 22.0772 7.89856 21.4852 7.61172 20.7925C7.32488 20.0999 7.24984 19.3378 7.39606 18.6026C7.54229 17.8673 7.90323 17.1919 8.43325 16.6617C8.96327 16.1316 9.63858 15.7705 10.3738 15.624C11.109 15.4776 11.8712 15.5525 12.5638 15.8391C13.2565 16.1258 13.8487 16.6114 14.2654 17.2345C14.6822 17.8577 14.9048 18.5904 14.9052 19.34C14.9052 20.3455 14.5058 21.3097 13.7949 22.0207C13.0839 22.7316 12.1197 23.131 11.1142 23.131L11.1132 23.133Z" fill="#FD852B"/>
<path d="M3.79102 15.805C3.04124 15.8052 2.30823 15.5831 1.68469 15.1667C1.06115 14.7503 0.575095 14.1583 0.287981 13.4657C0.000866264 12.7731 -0.0744094 12.0108 0.0716731 11.2754C0.217756 10.54 0.578636 9.86441 1.10868 9.33409C1.63872 8.80377 2.31411 8.44253 3.04946 8.29606C3.7848 8.14959 4.54706 8.22447 5.23985 8.51121C5.93264 8.79796 6.52485 9.28371 6.94157 9.90703C7.3583 10.5303 7.58083 11.2632 7.58102 12.013C7.58102 12.5109 7.48297 13.0038 7.29245 13.4638C7.10194 13.9237 6.82269 14.3416 6.47067 14.6937C6.11864 15.0457 5.70072 15.3249 5.24078 15.5155C4.78083 15.706 4.28787 15.804 3.79003 15.804L3.79102 15.805Z" fill="#FD852B"/>
<path d="M18.4336 15.805C17.6838 15.805 16.9508 15.5827 16.3274 15.1661C15.704 14.7496 15.2181 14.1575 14.9312 13.4648C14.6442 12.7721 14.5691 12.0098 14.7154 11.2744C14.8617 10.5391 15.2228 9.86356 15.7529 9.33338C16.2831 8.8032 16.9586 8.44214 17.694 8.29587C18.4294 8.14959 19.1916 8.22466 19.8843 8.5116C20.577 8.79853 21.1691 9.28443 21.5857 9.90786C22.0022 10.5313 22.2246 11.2642 22.2246 12.014C22.2246 12.5119 22.1265 13.0048 21.936 13.4648C21.7455 13.9247 21.4662 14.3426 21.1142 14.6947C20.7622 15.0467 20.3443 15.3259 19.8843 15.5165C19.4244 15.707 18.9314 15.805 18.4336 15.805Z" fill="#FD852B"/>
<path d="M164.082 13.8995L157.569 20.412L164.082 26.9244L170.594 20.412L164.082 13.8995Z" fill="#FD748C"/>
<path d="M51.6658 148.099L45.1543 154.61L51.6658 161.121L58.1772 154.61L51.6658 148.099Z" fill="#2EC3FC"/>
<path d="M41.2618 102.7C54.8872 102.7 65.9328 91.6544 65.9328 78.029C65.9328 64.4036 54.8872 53.358 41.2618 53.358C27.6364 53.358 16.5908 64.4036 16.5908 78.029C16.5908 91.6544 27.6364 102.7 41.2618 102.7Z" fill="#EC4D85"/>
<path d="M41.2617 88.487C47.0375 88.487 51.7197 83.8048 51.7197 78.029C51.7197 72.2533 47.0375 67.571 41.2617 67.571C35.4859 67.571 30.8037 72.2533 30.8037 78.029C30.8037 83.8048 35.4859 88.487 41.2617 88.487Z" fill="#FD748C"/>
<path d="M171.166 102.702H127.359V117.15L171.166 109.397V102.702Z" fill="#2EC3FC"/>
<path d="M127.36 96.712H110.771V123.14H127.36V96.712Z" fill="#F9D12F"/>
<path d="M127.36 96.712H119.065V123.14H127.36V96.712Z" fill="#F8B62B"/>
<path d="M171.166 109.396L127.359 109.925V117.15L171.166 109.396Z" fill="#1BA4FC"/>
</svg>
