<svg width="170" height="171" viewBox="0 0 170 171" fill="none" xmlns="http://www.w3.org/2000/svg">
<path d="M85 170.5C131.944 170.5 170 132.444 170 85.5C170 38.5558 131.944 0.5 85 0.5C38.0558 0.5 0 38.5558 0 85.5C0 132.444 38.0558 170.5 85 170.5Z" fill="#FEECEB"/>
<path d="M132.458 34.4H37V60.494H132.458V34.4Z" fill="#FD748C"/>
<path d="M132.458 60.494H37V132.5H132.458V60.494Z" fill="white"/>
<path d="M84.7289 71.471C84.7289 71.471 67.4199 116.741 67.4199 117.141C67.4199 120.009 75.1699 122.334 84.7289 122.334C94.2879 122.334 102.038 120.009 102.038 117.141C102.038 116.741 84.7289 71.471 84.7289 71.471Z" fill="#9B93D6"/>
<path d="M109.987 54.989H59.4707C59.0066 54.989 58.5615 54.8046 58.2333 54.4765C57.9051 54.1483 57.7207 53.7031 57.7207 53.239C57.7207 52.7749 57.9051 52.3298 58.2333 52.0016C58.5615 51.6734 59.0066 51.489 59.4707 51.489H109.987C110.451 51.489 110.896 51.6734 111.224 52.0016C111.552 52.3298 111.737 52.7749 111.737 53.239C111.737 53.7031 111.552 54.1483 111.224 54.4765C110.896 54.8046 110.451 54.989 109.987 54.989Z" fill="#FEDED6"/>
<path d="M55.7035 45.3C55.7035 45.3 67.4185 45.467 67.4185 34.4L54.3945 34.167L55.7035 45.3Z" fill="#EC4D85"/>
<path d="M113.629 45.3C113.629 45.3 125.345 45.467 125.345 34.4L112.321 34.167L113.629 45.3Z" fill="#EC4D85"/>
<path d="M55.704 45.3C54.5005 45.3 53.3462 44.8219 52.4952 43.9708C51.6441 43.1198 51.166 41.9656 51.166 40.762V28.039C51.1659 27.4429 51.2832 26.8526 51.5113 26.3018C51.7393 25.7511 52.0737 25.2507 52.4952 24.8291C52.9167 24.4076 53.4171 24.0733 53.9679 23.8452C54.5186 23.6172 55.1089 23.4999 55.705 23.5C56.9085 23.5003 58.0626 23.9785 58.9136 24.8294C59.7646 25.6804 60.2428 26.8345 60.243 28.038V40.762C60.2428 41.9655 59.7646 43.1196 58.9136 43.9706C58.0626 44.8215 56.9085 45.2997 55.705 45.3H55.704Z" fill="#F8B62B"/>
<path d="M113.754 45.3C112.551 45.2997 111.397 44.8217 110.546 43.9709C109.695 43.1201 109.216 41.9663 109.216 40.763V28.039C109.216 26.8354 109.694 25.681 110.545 24.8298C111.396 23.9786 112.55 23.5003 113.754 23.5C114.35 23.5 114.94 23.6174 115.491 23.8455C116.041 24.0736 116.542 24.408 116.963 24.8295C117.384 25.251 117.719 25.7514 117.947 26.3021C118.175 26.8528 118.292 27.443 118.292 28.039V40.762C118.292 41.9656 117.814 43.1198 116.963 43.9708C116.112 44.8219 114.957 45.3 113.754 45.3Z" fill="#F8B62B"/>
<path d="M132.458 34.4H120.729V60.494H132.458V34.4Z" fill="#EC4D85"/>
<path d="M132.458 60.494H120.729V132.5H132.458V60.494Z" fill="#EBDAD6"/>
<path d="M53.768 23.949C52.9915 24.3142 52.3349 24.8926 51.8746 25.6167C51.4142 26.3409 51.1692 27.1809 51.168 28.039V40.762C51.1692 41.62 51.4142 42.4601 51.8746 43.1842C52.3349 43.9083 52.9915 44.4867 53.768 44.852C54.5444 44.4867 55.2011 43.9083 55.6614 43.1842C56.1217 42.4601 56.3668 41.62 56.368 40.762V28.039C56.3668 27.1809 56.1217 26.3409 55.6614 25.6167C55.2011 24.8926 54.5444 24.3142 53.768 23.949Z" fill="#F9D12F"/>
<path d="M111.737 23.949C110.96 24.3142 110.304 24.8926 109.843 25.6167C109.383 26.3409 109.138 27.1809 109.137 28.039V40.762C109.138 41.62 109.383 42.4601 109.843 43.1842C110.304 43.9083 110.96 44.4867 111.737 44.852C112.513 44.4867 113.17 43.9083 113.63 43.1842C114.09 42.4601 114.336 41.62 114.337 40.762V28.039C114.336 27.1809 114.09 26.3409 113.63 25.6167C113.17 24.8926 112.513 24.3142 111.737 23.949Z" fill="#F9D12F"/>
<path d="M84.7289 109.632C79.1179 109.632 74.1359 108.832 70.9739 107.589C68.8909 113.095 67.4199 117.025 67.4199 117.141C67.4199 120.009 75.1699 122.334 84.7289 122.334C94.2879 122.334 102.038 120.009 102.038 117.141C102.038 117.024 100.567 113.095 98.4839 107.589C95.3219 108.83 90.3389 109.632 84.7289 109.632Z" fill="#F9D12F"/>
<path d="M90.8172 122C97.3692 121.26 102.038 119.368 102.038 117.144C102.038 116.765 86.4922 76.087 84.8682 71.839L90.8172 122Z" fill="#7D73C6"/>
<path d="M102.011 117.044L101.978 116.944L101.958 116.886L101.904 116.733L101.877 116.656L101.791 116.416L101.773 116.365L101.638 115.995L101.616 115.934L101.477 115.556L101.442 115.456L101.288 115.041L101.247 114.929C101.047 114.397 100.819 113.779 100.559 113.088L100.459 112.831L100.251 112.278L100.21 112.169C99.7101 110.835 99.1241 109.286 98.4811 107.585C95.5307 108.623 92.4507 109.246 89.3291 109.439L90.8171 122C92.3303 121.835 93.8327 121.583 95.3171 121.246H95.3401C95.6451 121.175 95.9401 121.1 96.2281 121.023L96.4281 120.967C96.6991 120.892 96.9651 120.816 97.2191 120.737L97.3561 120.692C97.8111 120.547 98.2341 120.392 98.6311 120.232C98.7251 120.194 98.8241 120.157 98.9141 120.118C99.0711 120.051 99.2141 119.981 99.3621 119.912C99.4871 119.852 99.6111 119.792 99.7281 119.731C99.8451 119.67 99.9731 119.601 100.088 119.531C100.221 119.454 100.346 119.375 100.466 119.295C100.551 119.239 100.641 119.185 100.719 119.128C100.894 119.002 101.061 118.865 101.219 118.718C101.265 118.675 101.299 118.631 101.341 118.587C101.441 118.485 101.534 118.376 101.619 118.262C101.658 118.209 101.692 118.155 101.725 118.102C101.79 117.998 101.845 117.889 101.891 117.775C101.911 117.726 101.934 117.675 101.949 117.627C102 117.472 102.027 117.309 102.03 117.146C102.026 117.125 102.021 117.105 102.014 117.085L102.011 117.044Z" fill="#F8B62B"/>
<path d="M84.7294 78.405C86.8679 78.405 88.6014 76.6715 88.6014 74.533C88.6014 72.3946 86.8679 70.661 84.7294 70.661C82.591 70.661 80.8574 72.3946 80.8574 74.533C80.8574 76.6715 82.591 78.405 84.7294 78.405Z" fill="#F8B62B"/>
<path d="M80.8555 74.533C80.8568 75.1425 81.0025 75.743 81.2806 76.2853C81.5587 76.8276 81.9614 77.2963 82.4555 77.653H82.4815C83.2985 77.6546 84.0949 77.3972 84.7564 76.9179C85.4179 76.4385 85.9104 75.7618 86.1633 74.985C86.4161 74.2082 86.4163 73.3713 86.1637 72.5944C85.9112 71.8175 85.4189 71.1406 84.7575 70.661H84.7285C84.2198 70.6606 83.7159 70.7605 83.2457 70.9549C82.7755 71.1493 82.3483 71.4344 81.9883 71.794C81.6284 72.1535 81.3428 72.5805 81.1479 73.0505C80.953 73.5205 80.8527 74.0242 80.8525 74.533H80.8555Z" fill="#F9D12F"/>
</svg>
