<svg width="109" height="109" viewBox="0 0 109 109" fill="none" xmlns="http://www.w3.org/2000/svg">
    <path d="M82 54L54.5 109L27 54H82Z" fill="#F9D12F"/>
    <path d="M82 54.229L77.5 63.229H31.5L27 54.229H82Z" fill="#2EC3FC"/>
    <path d="M29.278 0.457001L33.287 5.53L39.739 5.105L36.152 10.485L38.552 16.485L32.327 14.736L27.357 18.873L27.097 12.412L21.627 8.963L27.691 6.719L29.278 0.457001Z" fill="#F9D12F"/>
    <path d="M79.722 0.457001L75.713 5.53L69.261 5.105L72.848 10.485L70.448 16.485L76.673 14.736L81.643 18.873L81.903 12.412L87.373 8.963L81.309 6.719L79.722 0.457001Z" fill="#F8B62B"/>
    <path d="M56.0499 15.633C56.2024 15.4587 56.3187 15.2558 56.3922 15.0362C56.4657 14.8166 56.4948 14.5846 56.478 14.3536C56.4611 14.1226 56.3986 13.8973 56.294 13.6907C56.1894 13.484 56.0448 13.3002 55.8687 13.1499C55.6925 12.9995 55.4883 12.8857 55.2678 12.8148C55.0473 12.744 54.815 12.7177 54.5842 12.7373C54.3535 12.7569 54.1289 12.8222 53.9236 12.9292C53.7182 13.0363 53.5361 13.1831 53.3879 13.361C51.4151 15.7873 50.3321 18.8157 50.319 21.9428C50.306 25.0699 51.3635 28.1073 53.3159 30.55C54.3376 31.7961 55.0341 33.2764 55.3428 34.858C55.6516 36.4396 55.563 38.0731 55.0849 39.612C54.1309 42.667 52.0259 44.552 51.1619 44.84C50.9399 44.9093 50.7339 45.0222 50.5561 45.1721C50.3782 45.3219 50.232 45.5058 50.1259 45.7128C50.0199 45.9198 49.9562 46.1459 49.9386 46.3778C49.921 46.6098 49.9498 46.8429 50.0233 47.0635C50.0968 47.2842 50.2136 47.488 50.3668 47.663C50.52 47.838 50.7065 47.9808 50.9155 48.0829C51.1245 48.1849 51.3517 48.2444 51.5839 48.2576C51.8162 48.2708 52.0487 48.2377 52.2679 48.16C54.3309 47.473 57.1899 44.608 58.4249 40.66C59.0612 38.5904 59.1835 36.3968 58.7811 34.2693C58.3788 32.1418 57.464 30.1444 56.1159 28.45C54.6463 26.6408 53.8386 24.384 53.8266 22.0531C53.8146 19.7223 54.599 17.4572 56.0499 15.633Z" fill="#FD852B"/>
    <path d="M18.1549 29.778C15.9027 29.1779 13.923 27.8266 12.5436 25.9479C11.1642 24.0691 10.4679 21.7755 10.5699 19.447C10.5912 19.2161 10.5664 18.9833 10.4969 18.7621C10.4275 18.5409 10.3148 18.3357 10.1653 18.1584C10.0159 17.9812 9.83272 17.8353 9.62646 17.7295C9.4202 17.6236 9.19495 17.5598 8.9638 17.5417C8.73265 17.5236 8.50022 17.5516 8.27999 17.6241C8.05977 17.6966 7.85615 17.8122 7.68096 17.964C7.50578 18.1159 7.36252 18.3011 7.2595 18.5088C7.15649 18.7165 7.09578 18.9426 7.0809 19.174C6.91053 22.2965 7.81397 25.3832 9.64103 27.921C11.4681 30.4588 14.1087 32.2949 17.1239 33.124C18.6829 33.5317 20.1164 34.3199 21.2957 35.4181C22.475 36.5162 23.3633 37.8899 23.8809 39.416C24.9039 42.448 24.3089 45.216 23.7809 45.952C23.6472 46.1389 23.5517 46.3504 23.4997 46.5742C23.4477 46.7981 23.4403 47.03 23.478 47.2567C23.554 47.7146 23.8089 48.1235 24.1864 48.3935C24.5639 48.6635 25.0333 48.7724 25.4911 48.6964C25.949 48.6204 26.3579 48.3655 26.6279 47.988C27.8929 46.219 28.5279 42.221 27.1989 38.298C26.4971 36.2499 25.3068 34.4037 23.7309 32.9191C22.1551 31.4346 20.2412 30.3564 18.1549 29.778Z" fill="#FD852B"/>
    <path d="M101.919 19.173C101.905 18.9407 101.845 18.7135 101.742 18.5047C101.639 18.2959 101.495 18.1098 101.319 17.9572C101.144 17.8046 100.939 17.6886 100.718 17.616C100.497 17.5434 100.264 17.5156 100.032 17.5343C99.7996 17.553 99.5736 17.6178 99.367 17.7248C99.1603 17.8319 98.9771 17.9792 98.828 18.1579C98.679 18.3367 98.5671 18.5434 98.4989 18.766C98.4307 18.9885 98.4076 19.2224 98.4309 19.454C98.5493 21.7853 97.859 24.086 96.4768 25.9672C95.0945 27.8483 93.1051 29.1944 90.8449 29.778C88.7587 30.3561 86.8447 31.4339 85.2687 32.9181C83.6927 34.4023 82.5021 36.2482 81.7999 38.296C80.4759 42.22 81.1059 46.217 82.3709 47.986C82.6409 48.3635 83.0498 48.6183 83.5077 48.6944C83.9656 48.7704 84.4349 48.6615 84.8124 48.3915C85.19 48.1215 85.4448 47.7126 85.5208 47.2547C85.5969 46.7969 85.4879 46.3275 85.2179 45.95C84.6889 45.21 84.0929 42.45 85.1179 39.414C85.6355 37.888 86.5238 36.5142 87.7031 35.4161C88.8824 34.3179 90.3159 33.5297 91.8749 33.122C94.8901 32.2931 97.5308 30.4573 99.3581 27.9196C101.185 25.382 102.089 22.2954 101.919 19.173Z" fill="#FD852B"/>
    <path d="M38.04 37.082C38.4902 36.9694 38.8772 36.6825 39.1159 36.2846C39.3547 35.8867 39.4256 35.4102 39.313 34.96L36.313 22.96C36.2005 22.5091 35.9134 22.1215 35.515 21.8822C35.1165 21.643 34.6394 21.5719 34.1885 21.6845C33.7377 21.7971 33.35 22.0842 33.1108 22.4826C32.8716 22.881 32.8005 23.3581 32.913 23.809L35.913 35.809C35.9686 36.032 36.0676 36.2419 36.2043 36.4267C36.3411 36.6114 36.5129 36.7674 36.71 36.8856C36.9071 37.0038 37.1256 37.0821 37.353 37.1158C37.5803 37.1495 37.8121 37.138 38.035 37.082H38.04Z" fill="#FC6928"/>
    <path d="M41.044 41.093C40.9314 40.6421 40.6443 40.2544 40.2459 40.0152C39.8475 39.776 39.3704 39.7049 38.9195 39.8175C38.4686 39.9301 38.081 40.2172 37.8418 40.6156C37.6025 41.014 37.5314 41.4911 37.644 41.942L38.644 45.942C38.6997 46.1652 38.7989 46.3753 38.9359 46.5602C39.0728 46.7452 39.2448 46.9013 39.4421 47.0197C39.6394 47.1382 39.858 47.2166 40.0856 47.2505C40.3132 47.2845 40.5453 47.2732 40.7685 47.2175C40.9917 47.1617 41.2018 47.0626 41.3867 46.9256C41.5717 46.7887 41.7278 46.6167 41.8462 46.4194C41.9647 46.2221 42.0431 46.0035 42.077 45.7759C42.111 45.5483 42.0997 45.3162 42.044 45.093L41.044 41.093Z" fill="#FC6928"/>
    <path d="M74.809 21.686C74.3588 21.5738 73.8825 21.6448 73.4846 21.8835C73.0867 22.1221 72.7998 22.509 72.687 22.959L69.687 34.959C69.5744 35.4099 69.6455 35.887 69.8847 36.2854C70.1239 36.6838 70.5116 36.9709 70.9625 37.0835C71.4133 37.1961 71.8905 37.125 72.2889 36.8858C72.6873 36.6466 72.9744 36.2589 73.087 35.808L76.087 23.808C76.1426 23.5848 76.1537 23.3527 76.1195 23.1252C76.0854 22.8976 76.0067 22.6791 75.888 22.482C75.7693 22.2849 75.6129 22.1131 75.4278 21.9765C75.2426 21.84 75.0323 21.7412 74.809 21.686Z" fill="#FC6928"/>
    <path d="M70.079 39.82C69.6288 39.7077 69.1525 39.7788 68.7546 40.0174C68.3567 40.2561 68.0699 40.643 67.957 41.093L66.957 45.093C66.9012 45.3162 66.89 45.5483 66.9239 45.7759C66.9579 46.0035 67.0363 46.2221 67.1547 46.4194C67.2732 46.6167 67.4293 46.7887 67.6142 46.9256C67.7992 47.0626 68.0092 47.1617 68.2325 47.2175C68.4557 47.2732 68.6878 47.2845 68.9154 47.2505C69.1429 47.2166 69.3616 47.1382 69.5589 47.0197C69.7562 46.9013 69.9282 46.7452 70.0651 46.5602C70.2021 46.3753 70.3012 46.1652 70.357 45.942L71.357 41.942C71.4126 41.7187 71.4237 41.4867 71.3895 41.2592C71.3554 41.0316 71.2767 40.8131 71.158 40.616C71.0393 40.4189 70.8829 40.2471 70.6978 40.1105C70.5126 39.974 70.3023 39.8752 70.079 39.82Z" fill="#FC6928"/>
    <path d="M10.2987 39.5424L5.99805 43.843L10.2987 48.1436L14.5993 43.843L10.2987 39.5424Z" fill="#FD748C"/>
    <path d="M98.7015 39.5434L94.4009 43.844L98.7015 48.1446L103.002 43.844L98.7015 39.5434Z" fill="#FD748C"/>
    <path d="M3.5 7C5.433 7 7 5.433 7 3.5C7 1.567 5.433 0 3.5 0C1.567 0 0 1.567 0 3.5C0 5.433 1.567 7 3.5 7Z" fill="#2EC3FC"/>
    <path d="M105.5 7C107.433 7 109 5.433 109 3.5C109 1.567 107.433 0 105.5 0C103.567 0 102 1.567 102 3.5C102 5.433 103.567 7 105.5 7Z" fill="#2EC3FC"/>
    <path d="M46.7361 93.472L54.5001 109L82.0001 54H65.5741L46.7361 93.472Z" fill="#F8B62B"/>
    <path d="M65.5739 54.229L61.2739 63.229H77.4999L81.9999 54.229H65.5739Z" fill="#1BA4FC"/>
    <path d="M78.061 5.52301L77.492 3.27901L75.713 5.53001L69.261 5.10501L72.848 10.485L71.4 14.109L70.45 16.49L75.324 15.121L76.675 14.741L78.454 16.221L78.654 11.216L84.124 7.76701L78.061 5.52301Z" fill="#F9D12F"/>
    <path d="M30.939 5.52301L31.508 3.27901L33.287 5.53001L39.739 5.10501L36.152 10.485L37.6 14.109L38.551 16.49L33.677 15.121L32.326 14.741L30.547 16.221L30.347 11.216L24.877 7.76701L30.939 5.52301Z" fill="#F8B62B"/>
</svg>
