<svg width="20" height="20" viewBox="0 0 20 20" fill="none" xmlns="http://www.w3.org/2000/svg">
<path d="M4.16602 6.112H15.8327" stroke="#11064A" stroke-width="1.5" stroke-linecap="round" stroke-linejoin="round"/>
<path d="M7.40733 6.11201V4.81506C7.40733 4.64487 7.44086 4.47635 7.50598 4.31911C7.57111 4.16188 7.66657 4.01901 7.78692 3.89867C7.90726 3.77833 8.05013 3.68287 8.20736 3.61774C8.36459 3.55261 8.53312 3.51909 8.70331 3.51909H11.2962C11.4664 3.51909 11.6349 3.55261 11.7922 3.61774C11.9494 3.68287 12.0923 3.77833 12.2126 3.89867C12.333 4.01901 12.4284 4.16188 12.4935 4.31911C12.5587 4.47635 12.5922 4.64487 12.5922 4.81506V6.11201M14.5366 6.11201V15.1858C14.5366 15.5295 14.4001 15.8591 14.1571 16.1021C13.914 16.3452 13.5844 16.4817 13.2407 16.4817H6.75886C6.41515 16.4817 6.08551 16.3452 5.84247 16.1021C5.59943 15.8591 5.46289 15.5295 5.46289 15.1858V6.11201H14.5366Z" stroke="#11064A" stroke-width="1.5" stroke-linecap="round" stroke-linejoin="round"/>
</svg>
