<svg width="20" height="20" viewBox="0 0 20 20" fill="none" xmlns="http://www.w3.org/2000/svg">
<path d="M9.406 4.30899H4.424C4.04633 4.30899 3.68413 4.45902 3.41708 4.72607C3.15003 4.99312 3 5.35532 3 5.73299V15.698C3 16.0757 3.15003 16.4379 3.41708 16.7049C3.68413 16.972 4.04633 17.122 4.424 17.122H14.389C14.7667 17.122 15.1289 16.972 15.3959 16.7049C15.663 16.4379 15.813 16.0757 15.813 15.698V10.715" stroke="black" stroke-width="1.5" stroke-linecap="round" stroke-linejoin="round"/>
<path d="M14.7455 3.24099C15.0286 2.95774 15.4126 2.79856 15.8131 2.79846C16.2136 2.79837 16.5977 2.95737 16.881 3.24049C17.1642 3.52361 17.3234 3.90765 17.3235 4.30813C17.3236 4.70862 17.1646 5.09274 16.8815 5.37599L10.1195 12.138L7.27148 12.851L7.98348 10.004L14.7455 3.24099Z" stroke="black" stroke-width="1.5" stroke-linecap="round" stroke-linejoin="round"/>
</svg>
