<svg width="48" height="56" viewBox="0 0 48 56" fill="none" xmlns="http://www.w3.org/2000/svg">
    <path d="M24 55.635C37.2548 55.635 48 44.8898 48 31.635C48 18.3801 37.2548 7.63498 24 7.63498C10.7452 7.63498 0 18.3801 0 31.635C0 44.8898 10.7452 55.635 24 55.635Z" fill="#5446B2"/>
    <path d="M40.2832 16.026C40.1416 16.026 40.0028 15.9868 39.8822 15.9126C39.7617 15.8385 39.664 15.7323 39.6002 15.606C38.9943 14.3236 38.8455 12.8725 39.1786 11.4939C39.5117 10.1153 40.3066 8.89222 41.4312 8.02798C42.0234 7.58413 42.4963 7.00022 42.8073 6.32863C43.1183 5.65703 43.2578 4.91875 43.2132 4.17998C43.1951 3.13841 42.7714 2.14498 42.0322 1.41098C41.9473 1.3574 41.8737 1.28762 41.8158 1.20563C41.7579 1.12364 41.7167 1.03104 41.6945 0.933123C41.6724 0.835203 41.6697 0.73388 41.6867 0.634939C41.7037 0.535998 41.7401 0.441378 41.7937 0.356478C41.8472 0.271578 41.917 0.198063 41.999 0.14013C42.081 0.0821972 42.1736 0.0409806 42.2715 0.0188338C42.3694 -0.00331295 42.4708 -0.00595647 42.5697 0.0110547C42.6686 0.0280659 42.7633 0.0643985 42.8482 0.117978C43.426 0.608254 43.8935 1.2153 44.22 1.89921C44.5464 2.58311 44.7244 3.32837 44.7422 4.08598C44.8064 5.06702 44.6263 6.04867 44.2181 6.94306C43.8099 7.83746 43.1863 8.61668 42.4032 9.21098C41.5434 9.8513 40.931 10.7688 40.6696 11.8084C40.4081 12.8481 40.5136 13.9461 40.9682 14.917C41.0268 15.0335 41.0547 15.1631 41.0492 15.2935C41.0436 15.4238 41.0049 15.5506 40.9365 15.6617C40.8682 15.7729 40.7725 15.8647 40.6587 15.9284C40.5449 15.9922 40.4166 16.0258 40.2862 16.026H40.2832Z" fill="#FD852B"/>
    <path d="M37.4088 6.42986L38.4844 3.87396L35.9285 2.79836L34.8529 5.35425L37.4088 6.42986Z" fill="#2EC3FC"/>
    <path d="M41.3781 24.3814C42.1944 24.0487 42.5863 23.1173 42.2536 22.301C41.9209 21.4848 40.9895 21.0928 40.1732 21.4255C39.357 21.7583 38.965 22.6897 39.2978 23.5059C39.6305 24.3222 40.5619 24.7141 41.3781 24.3814Z" fill="#F9D12F"/>
    <path d="M6.4687 26.047C6.33842 26.0468 6.21035 26.0133 6.09664 25.9497C5.98293 25.8861 5.88735 25.7945 5.81894 25.6837C5.75053 25.5728 5.71157 25.4463 5.70575 25.3161C5.69994 25.186 5.72745 25.0565 5.7857 24.94C6.23144 23.9678 6.33227 22.8726 6.07156 21.8354C5.81084 20.7982 5.20415 19.8809 4.3517 19.235C3.56852 18.6407 2.94492 17.8615 2.53673 16.9671C2.12854 16.0727 1.94849 15.091 2.0127 14.11C2.02906 13.3512 2.20625 12.6045 2.53257 11.9193C2.85889 11.2341 3.32691 10.6259 3.9057 10.135C3.9906 10.0814 4.08522 10.0451 4.18416 10.0281C4.2831 10.011 4.38442 10.0137 4.48234 10.0358C4.58026 10.058 4.67286 10.0992 4.75485 10.1571C4.83684 10.2151 4.90662 10.2886 4.9602 10.3735C5.01378 10.4584 5.05011 10.553 5.06712 10.6519C5.08413 10.7509 5.08149 10.8522 5.05934 10.9501C5.03719 11.048 4.99598 11.1406 4.93804 11.2226C4.88011 11.3046 4.8066 11.3744 4.7217 11.428C3.98224 12.1617 3.55757 13.1545 3.5377 14.196C3.49311 14.9347 3.63258 15.673 3.94359 16.3446C4.25461 17.0162 4.72744 17.6001 5.3197 18.044C6.44391 18.9085 7.23841 20.1317 7.57114 21.5103C7.90387 22.8889 7.7548 24.3398 7.1487 25.622C7.08578 25.7488 6.9889 25.8557 6.86884 25.9307C6.74879 26.0057 6.61027 26.046 6.4687 26.047Z" fill="#FD852B"/>
    <path d="M11.8969 15.3739L10.8213 12.818L8.26539 13.8936L9.341 16.4495L11.8969 15.3739Z" fill="#2EC3FC"/>
    <path d="M7.45283 33.5259C7.78555 32.7097 7.39358 31.7783 6.57734 31.4456C5.7611 31.1128 4.82969 31.5048 4.49697 32.321C4.16425 33.1373 4.55622 34.0687 5.37246 34.4014C6.1887 34.7341 7.12012 34.3422 7.45283 33.5259Z" fill="#F9D12F"/>
    <path d="M23.6198 4.83597C23.6198 4.83597 8.7998 43.596 8.7998 43.936C8.7998 46.392 15.4348 48.382 23.6198 48.382C31.8048 48.382 38.4398 46.392 38.4398 43.936C38.4398 43.596 23.6198 4.83597 23.6198 4.83597Z" fill="#FD748C"/>
    <path d="M23.6193 42.411C29.4883 42.411 34.5583 41.387 36.9593 39.903C36.5123 38.713 35.9833 37.31 35.3963 35.759C31.6014 37.0189 27.6165 37.61 23.6193 37.506C19.622 37.6103 15.637 37.0188 11.8423 35.758C11.2553 37.309 10.7263 38.712 10.2793 39.902C12.6803 41.387 17.7513 42.411 23.6193 42.411Z" fill="#2EC3FC"/>
    <path d="M22.5129 25.866L20.4509 21.688L18.3889 25.866L15.4349 26.295L14.9199 27.649L17.1199 29.79L16.3339 34.382L20.4579 32.214L24.5749 34.382L23.7899 29.795L27.1259 26.543L22.5129 25.866Z" fill="#F9D12F"/>
    <path d="M27.1102 13.978L26.5012 15.211L22.3652 15.811L25.3592 18.733L24.6532 22.852L28.3532 20.908L30.1042 21.825L27.1102 13.978Z" fill="#F9D12F"/>
    <path d="M38.4401 43.938C38.4401 43.596 23.6201 4.83798 23.6201 4.83798L32.0371 47.598C35.9051 46.795 38.4401 45.457 38.4401 43.938Z" fill="#EC4D85"/>
    <path d="M30.0135 21.592L29.8825 21.242L29.6645 20.667L29.4285 20.048L29.3155 19.748C28.5435 17.721 27.7965 15.765 27.1155 13.973L26.5065 15.206L25.6895 15.325L26.9335 21.647L28.3535 20.901L30.1045 21.818L30.0135 21.592Z" fill="#F8B62B"/>
    <path d="M30.9018 41.836C33.0202 41.5596 35.0717 40.9052 36.9588 39.904C36.5118 38.714 35.9828 37.311 35.3958 35.76C33.641 36.4022 31.8196 36.8449 29.9658 37.08L30.9018 41.836Z" fill="#1BA4FC"/>
    <path d="M23.6197 10.773C25.4505 10.773 26.9347 9.2888 26.9347 7.45797C26.9347 5.62715 25.4505 4.14297 23.6197 4.14297C21.7889 4.14297 20.3047 5.62715 20.3047 7.45797C20.3047 9.2888 21.7889 10.773 23.6197 10.773Z" fill="#1BA4FC"/>
    <path d="M23.5863 4.14398C22.8954 4.15032 22.2238 4.37257 21.6655 4.77959C21.1072 5.18662 20.6902 5.75806 20.4729 6.41389C20.2555 7.06972 20.2487 7.7771 20.4534 8.437C20.658 9.0969 21.064 9.67627 21.6143 10.094C22.3052 10.0876 22.9768 9.8654 23.5351 9.45837C24.0934 9.05134 24.5104 8.47991 24.7277 7.82408C24.9451 7.16825 24.9519 6.46086 24.7472 5.80096C24.5426 5.14106 24.1366 4.5617 23.5863 4.14398Z" fill="#2EC3FC"/>
</svg>
