<svg width="24" height="24" viewBox="0 0 24 24" fill="none" xmlns="http://www.w3.org/2000/svg">
<path d="M20.0621 4H4.00681C3.47385 4.00284 2.96367 4.21644 2.58767 4.59417C2.21166 4.97189 2.0004 5.48305 2 6.01601V18.1152C2.0004 18.6481 2.21166 19.1593 2.58767 19.537C2.96367 19.9148 3.47385 20.1284 4.00681 20.1312H20.0621C20.595 20.1284 21.1052 19.9148 21.4812 19.537C21.8572 19.1593 22.0685 18.6481 22.0689 18.1152V6.01601C22.0685 5.48305 21.8572 4.97189 21.4812 4.59417C21.1052 4.21644 20.595 4.00284 20.0621 4ZM20.0621 18.1152H18.0552V9.24256L12.0348 13.0736L6.01362 9.24256V18.1152H4.00681V6.01601H5.2112L12.0348 10.2506L18.8584 6.01601H20.0628L20.0621 18.1152Z" fill="#6159A9"/>
</svg>
