<svg width="280" height="280" viewBox="0 0 280 280" fill="none" xmlns="http://www.w3.org/2000/svg">
    <g clip-path="url(#clip-violet-circle)">
        <path xmlns="http://www.w3.org/2000/svg" opacity="0.2"
              d="M140 280C217.32 280 280 217.32 280 140C280 62.6801 217.32 0 140 0C62.6801 0 0 62.6801 0 140C0 217.32 62.6801 280 140 280Z"
              fill="#6159A9"/>
        <path d="M80.8074 173.488H187.479C202.759 173.488 217.413 179.557 228.217 190.362C239.021 201.166 245.091 215.82 245.091 231.1V263.407H23.1953V231.105C23.1947 223.538 24.6845 216.045 27.5798 209.055C30.4751 202.064 34.7191 195.712 40.0695 190.362C45.4199 185.011 51.7718 180.767 58.7625 177.872C65.7532 174.977 73.2458 173.487 80.8123 173.488H80.8074Z"
              fill="#6159A9"/>
        <path d="M187.478 173.483H100.146C92.5789 173.483 85.0856 174.974 78.0945 177.87C71.1034 180.767 64.7514 185.012 59.4013 190.364C54.0513 195.716 49.808 202.069 46.9139 209.061C44.0198 216.053 42.5316 223.547 42.5342 231.115V279.966H245.09V231.115C245.093 223.547 243.605 216.053 240.71 209.061C237.816 202.069 233.573 195.716 228.223 190.364C222.873 185.012 216.521 180.767 209.53 177.87C202.539 174.974 195.046 173.483 187.478 173.483V173.483Z"
              fill="#6159A9"/>
        <path d="M213.745 173.487H54.5459L74.8997 89.0698H193.386L213.745 173.487Z" fill="#6159A9"/>
        <path d="M134.142 210.133C153.443 210.133 169.089 194.486 169.089 175.186C169.089 155.885 153.443 140.239 134.142 140.239C114.842 140.239 99.1953 155.885 99.1953 175.186C99.1953 194.486 114.842 210.133 134.142 210.133Z"
              fill="#6159A9"/>
        <path d="M81.4854 89.0698H186.803V141.73C186.803 148.645 185.441 155.493 182.795 161.882C180.149 168.27 176.27 174.075 171.38 178.965C166.49 183.855 160.685 187.734 154.296 190.38C147.907 193.026 141.059 194.388 134.144 194.388V194.388C120.178 194.388 106.784 188.84 96.9086 178.965C87.0333 169.089 81.4854 155.696 81.4854 141.73V89.0698Z"
              fill="#6159A9"/>
        <path d="M141.675 193.84C154.203 192.026 165.658 185.761 173.944 176.191C182.229 166.622 186.791 154.388 186.793 141.73V89.0732H96.5654V141.731C96.5674 154.387 101.127 166.619 109.41 176.188C117.693 185.758 129.145 192.024 141.67 193.84H141.675Z"
              fill="#6159A9"/>
        <path d="M209.015 263.401V218.452C209.015 217.507 208.64 216.601 207.972 215.933C207.304 215.265 206.397 214.889 205.453 214.889C204.508 214.889 203.602 215.265 202.934 215.933C202.266 216.601 201.891 217.507 201.891 218.452V263.401H209.015Z"
              fill="#6159A9"/>
        <path d="M66.3928 218.452V263.401H59.2686V218.452C59.2686 217.507 59.6438 216.601 60.3119 215.933C60.9799 215.265 61.886 214.889 62.8307 214.889C63.7754 214.889 64.6815 215.265 65.3495 215.933C66.0175 216.601 66.3928 217.507 66.3928 218.452V218.452Z"
              fill="#6159A9"/>
        <path d="M205.464 116.833C205.462 121.781 203.495 126.527 199.996 130.025C196.496 133.523 191.75 135.489 186.802 135.489V98.1675C189.253 98.1675 191.68 98.6503 193.944 99.5884C196.209 100.526 198.266 101.901 199.999 103.635C201.732 105.368 203.107 107.426 204.044 109.69C204.982 111.955 205.464 114.382 205.464 116.833V116.833Z"
              fill="#6159A9"/>
        <path d="M82.741 121.918C82.741 121.918 113.276 112.718 115.821 89.07C115.821 89.07 135.127 121.825 186.8 121.615C238.472 121.404 212.071 3.33533 112.767 57.1136C112.767 57.1136 81.4835 46.9341 72.1523 100.678L74.9026 116.826L82.741 121.918Z"
              fill="#6159A9"/>
        <path d="M112.767 57.1135L109.747 56.5287C101.68 55.5611 79.714 57.14 72.1523 100.684L74.9026 116.836L82.741 121.926C87.5818 120.32 92.2208 118.159 96.5654 115.488C96.5654 115.488 92.4101 56.9429 112.767 57.1135Z"
              fill="#6159A9"/>
        <path d="M62.8223 116.833C62.824 121.781 64.791 126.527 68.2907 130.025C71.7903 133.523 76.5361 135.489 81.4845 135.489V98.1675C79.0335 98.1675 76.6064 98.6503 74.342 99.5884C72.0776 100.526 70.0201 101.901 68.2871 103.635C66.5541 105.368 65.1796 107.426 64.2419 109.69C63.3042 111.955 62.8218 114.382 62.8223 116.833V116.833Z"
              fill="#6159A9"/>
    </g>
    <defs xmlns="http://www.w3.org/2000/svg">
        <clipPath id="clip-violet-circle">
            <circle cx="140" cy="140" r="140" fill="red" fill-opacity="0.2"/>
        </clipPath>
    </defs>
</svg>

