<svg width="24" height="24" viewBox="0 0 24 24" fill="none" xmlns="http://www.w3.org/2000/svg">
<path d="M16.2857 22H7.71429C6.1993 21.9982 4.74687 21.3958 3.67562 20.3245C2.60436 19.2532 2.00176 17.8007 2 16.2857V7.71429C2.00176 6.1993 2.60436 4.74676 3.67562 3.6755C4.74687 2.60425 6.1993 2.00176 7.71429 2H16.2857C17.8007 2.00176 19.2531 2.60425 20.3243 3.6755C21.3956 4.74676 21.9982 6.1993 22 7.71429V16.2857C21.9982 17.8007 21.3956 19.2532 20.3243 20.3245C19.2531 21.3958 17.8007 21.9982 16.2857 22ZM11.7695 8.4202C11.0421 8.41842 10.3286 8.61997 9.7095 9.00195C9.09042 9.38393 8.59038 9.93117 8.26569 10.5821C7.89289 11.3192 7.76275 12.155 7.89396 12.9705C8.02517 13.786 8.41096 14.5393 8.99614 15.1222C9.36027 15.4879 9.7933 15.7778 10.2701 15.9751C10.747 16.1724 11.2582 16.2732 11.7743 16.2718C12.3864 16.2713 12.99 16.1277 13.5371 15.8532C14.2756 15.483 14.8781 14.8887 15.2585 14.1554C15.6389 13.4221 15.7778 12.5877 15.6552 11.7707C15.5337 10.9366 15.1451 10.1644 14.5476 9.56975C13.9532 8.97271 13.1813 8.58432 12.3476 8.46298C12.1562 8.43439 11.963 8.42014 11.7695 8.4202ZM17.6818 5.66862C17.4673 5.6683 17.2569 5.72768 17.0742 5.84022C16.8916 5.95275 16.7438 6.11394 16.6476 6.30571C16.5375 6.52371 16.4991 6.77097 16.5378 7.01209C16.5764 7.25321 16.6902 7.47603 16.8628 7.64872C16.9705 7.75636 17.0984 7.84181 17.2391 7.89983C17.3798 7.95786 17.5306 7.98729 17.6828 7.98679C17.8632 7.98667 18.0412 7.94502 18.2029 7.86496C18.4209 7.75532 18.5988 7.5794 18.7111 7.36272C18.8235 7.14605 18.8646 6.8996 18.8286 6.6582C18.7928 6.41202 18.6784 6.184 18.5025 6.00809C18.3265 5.83218 18.0985 5.7179 17.8523 5.68211C17.7953 5.67268 17.7378 5.66748 17.68 5.66676L17.6818 5.66862Z" fill="#6159A9"/>
</svg>
