<svg width="170" height="170" viewBox="0 0 170 170" fill="none" xmlns="http://www.w3.org/2000/svg">
<path d="M85 170C131.944 170 170 131.944 170 85C170 38.0558 131.944 0 85 0C38.0558 0 0 38.0558 0 85C0 131.944 38.0558 170 85 170Z" fill="#FEECEB"/>
<path d="M142.956 45.9191H28.1992V118.611H142.956V45.9191Z" fill="white"/>
<path d="M85.5007 55.787C85.5007 55.787 72.0957 90.844 72.0957 91.154C72.0957 93.375 78.0957 95.176 85.5007 95.176C92.9057 95.176 98.9057 93.376 98.9057 91.154C98.9067 90.844 85.5007 55.787 85.5007 55.787Z" fill="#9B93D6"/>
<path d="M129.309 118.611H28.1992L129.309 131.052V118.611Z" fill="#EBDAD6"/>
<path d="M112.056 104.257H58.9445C58.4565 104.257 57.9885 104.063 57.6434 103.718C57.2983 103.373 57.1045 102.905 57.1045 102.417C57.1045 101.929 57.2983 101.461 57.6434 101.116C57.9885 100.771 58.4565 100.577 58.9445 100.577H112.056C112.544 100.577 113.013 100.771 113.358 101.116C113.703 101.461 113.896 101.929 113.896 102.417C113.896 102.905 113.703 103.373 113.358 103.718C113.013 104.063 112.544 104.257 112.056 104.257Z" fill="#626262"/>
<path d="M112.056 110.46H58.9445C58.4565 110.46 57.9885 110.266 57.6434 109.921C57.2983 109.576 57.1045 109.108 57.1045 108.62C57.1045 108.132 57.2983 107.664 57.6434 107.319C57.9885 106.974 58.4565 106.78 58.9445 106.78H112.056C112.544 106.78 113.013 106.974 113.358 107.319C113.703 107.664 113.896 108.132 113.896 108.62C113.896 109.108 113.703 109.576 113.358 109.921C113.013 110.266 112.544 110.46 112.056 110.46Z" fill="#626262"/>
<path d="M28.1992 63.7631V45.9191H46.0442L28.1992 63.7631Z" fill="#FD748C"/>
<path d="M46.0442 118.611H28.1992V100.766L46.0442 118.611Z" fill="#FD748C"/>
<path d="M142.801 100.766V118.611H124.956L142.801 100.766Z" fill="#EC4D85"/>
<path d="M124.956 45.9191H142.801V63.7631L124.956 45.9191Z" fill="#EC4D85"/>
<path d="M98.9058 91.1551C98.9058 91.0651 97.7648 88.0181 96.1528 83.7551C92.7202 84.8954 89.1156 85.4307 85.4998 85.3371C81.8833 85.4309 78.278 84.8956 74.8448 83.7551C73.2328 88.0151 72.0918 91.0621 72.0918 91.1551C72.0918 93.3761 78.0918 95.1771 85.4968 95.1771C92.9018 95.1771 98.9058 93.3751 98.9058 91.1551Z" fill="#F9D12F"/>
<path d="M90.6001 94.8721C95.4731 94.2721 98.9061 92.8321 98.9061 91.1531C98.9061 90.8611 86.9261 59.5031 85.6221 56.1031L90.6001 94.8721Z" fill="#7D73C6"/>
<path d="M89.3535 85.1631L90.6005 94.8731C95.4735 94.2731 98.9065 92.8331 98.9065 91.1541C98.9065 91.0641 97.7655 88.0171 96.1535 83.7541C93.9607 84.5276 91.6733 85.0009 89.3535 85.1611V85.1631Z" fill="#F8B62B"/>
<path d="M85.501 61.1561C87.1573 61.1561 88.5 59.8134 88.5 58.1571C88.5 56.5008 87.1573 55.1581 85.501 55.1581C83.8447 55.1581 82.502 56.5008 82.502 58.1571C82.502 59.8134 83.8447 61.1561 85.501 61.1561Z" fill="#F8B62B"/>
<path d="M85.1659 55.191C84.5714 55.2537 84.0095 55.4938 83.5533 55.8802C83.0972 56.2665 82.7678 56.7812 82.6082 57.3573C82.4485 57.9333 82.4659 58.5441 82.6581 59.1102C82.8503 59.6762 83.2085 60.1713 83.6859 60.531C84.2804 60.4684 84.8423 60.2283 85.2984 59.8419C85.7546 59.4556 86.0839 58.9409 86.2436 58.3648C86.4032 57.7888 86.3858 57.178 86.1936 56.6119C86.0014 56.0459 85.6433 55.5508 85.1659 55.191Z" fill="#F9D12F"/>
</svg>
