<svg width="120" height="60" viewBox="0 0 120 60" fill="none" xmlns="http://www.w3.org/2000/svg">
<g clip-path="url(#clip0_3905_825)">
<path d="M59.0332 31.5228H54.0801V15.1092L59.0332 13.9212V31.5208V31.5228ZM48.0801 31.5228H42.4805V17.8929L48.0801 16.5501V31.5218V31.5228Z" fill="#fff"/>
<path d="M60.4822 31.523L65.4332 31.523V15.111L60.4822 13.923V31.523ZM71.4332 31.523H77.0332V17.893L71.4332 16.55V31.523Z" fill="#fff"/>
<path d="M41.002 17.6419V12.4119L47.082 10.6312V16.1312L41.0039 17.638L41.002 17.6419ZM53.0781 14.6419V8.86896L59.125 7.09698V13.1439L53.0801 14.6439L53.0781 14.6419Z" fill="#fff"/>
<path d="M78.125 17.642V12.412L72.045 10.629V16.129L78.125 17.642ZM66.049 14.642V8.87197L60.002 7.09997V13.147L66.047 14.642H66.049Z" fill="#fff"/>
<path d="M49.217 8.32794C48.978 7.77363 48.8579 7.17568 48.8635 6.57208C48.865 6.09307 48.9736 5.62012 49.1799 5.18781C49.3862 4.7555 49.6854 4.3746 50.0568 4.07208C50.7907 3.46755 51.7059 3.12672 52.6564 3.1048H52.7365C53.6227 3.1324 54.4846 3.40208 55.2287 3.88409C56.0066 4.33767 56.6056 5.04326 56.9279 5.88409C56.0296 5.05715 54.85 4.60507 53.6291 4.62091C52.5002 4.60628 51.4009 4.99047 50.5275 5.70587C50.1323 6.02246 49.811 6.42109 49.5842 6.87384C49.3574 7.3266 49.2319 7.82281 49.215 8.32892L49.217 8.32794Z" fill="#fff"/>
<path d="M69.5717 8.32898C69.8083 7.77287 69.9287 7.1743 69.9257 6.56998C69.9243 6.09095 69.8166 5.61821 69.6103 5.18587C69.4039 4.75354 69.1042 4.37241 68.7327 4.06998C68.0011 3.46552 67.0875 3.12459 66.1387 3.10198H66.0587C65.1725 3.12928 64.3107 3.39868 63.5667 3.88098C62.7886 4.3343 62.1888 5.03998 61.8667 5.88098C62.7615 5.05583 63.9377 4.60367 65.1547 4.61698C66.2836 4.60315 67.3813 4.98768 68.2547 5.70298C68.6508 6.01961 68.9735 6.41832 69.2007 6.87166C69.4279 7.32499 69.5541 7.82218 69.5707 8.32898H69.5717Z" fill="#fff"/>
<path d="M7.92935 56H11.1634V50.016H16.1134V56H19.3694V41.656H16.1134V47.178H11.1634V41.656H7.92935V56ZM25.7676 50.06L26.1196 48.74C26.5156 47.31 26.8896 45.638 27.2416 44.12H27.3296C27.7036 45.616 28.0996 47.31 28.4956 48.74L28.8256 50.06H25.7676ZM30.3656 56H33.7976L29.3096 41.656H25.4156L20.9276 56H24.2276L25.1076 52.59H29.4856L30.3656 56ZM35.3649 56H38.5989V51.138H40.3809C43.4169 51.138 45.9909 49.642 45.9909 46.276C45.9909 42.8 43.4389 41.656 40.2929 41.656H35.3649V56ZM38.5989 48.564V44.23H40.0949C41.8549 44.23 42.8229 44.78 42.8229 46.276C42.8229 47.772 41.9649 48.564 40.1829 48.564H38.5989ZM48.4704 56H51.7044V51.138H53.4864C56.5224 51.138 59.0964 49.642 59.0964 46.276C59.0964 42.8 56.5444 41.656 53.3984 41.656H48.4704V56ZM51.7044 48.564V44.23H53.2004C54.9604 44.23 55.9284 44.78 55.9284 46.276C55.9284 47.772 55.0704 48.564 53.2884 48.564H51.7044ZM63.825 56H67.059V50.896L71.393 41.656H68.005L66.707 44.956C66.311 46.034 65.915 47.024 65.497 48.124H65.409C65.013 47.024 64.639 46.034 64.243 44.956L62.967 41.656H59.491L63.825 50.896V56ZM77.7639 56H85.4639V55.12H78.7759V41.502H77.7639V56ZM88.0334 56H89.0454V41.502H88.0334V56ZM97.1026 56.264C99.9186 56.264 101.745 54.592 101.745 52.37C101.745 50.148 100.315 49.246 98.6866 48.52L96.4866 47.552C95.4306 47.068 93.9786 46.43 93.9786 44.758C93.9786 43.174 95.2766 42.162 97.1906 42.162C98.6426 42.162 99.7866 42.756 100.645 43.636L101.217 42.976C100.337 42.03 98.9286 41.238 97.1906 41.238C94.7706 41.238 92.9666 42.712 92.9666 44.802C92.9666 46.958 94.6606 47.86 95.9146 48.41L98.1146 49.4C99.5446 50.038 100.711 50.61 100.711 52.436C100.711 54.152 99.3246 55.34 97.1026 55.34C95.4306 55.34 93.9126 54.57 92.8566 53.382L92.1966 54.086C93.3406 55.362 94.9906 56.264 97.1026 56.264ZM107.486 56H108.498V42.382H113.118V41.502H102.866V42.382H107.486V56Z" fill="#fff"/>
</g>
<defs>
<clipPath id="clip0_3905_825">
<rect width="120" height="60" fill="white"/>
</clipPath>
</defs>
</svg>
