<svg width="38" height="29" viewBox="0 0 38 29" fill="none" xmlns="http://www.w3.org/2000/svg" style="transform: scale(0.6);">
    <path d="M18.0332 28.5228H13.0801V12.1092L18.0332 10.9212V28.5208V28.5228ZM7.08008 28.5228H1.48047V14.8929L7.08008 13.5501V28.5218V28.5228Z" fill="#6159A9"/>
    <path d="M19.4822 28.523L24.4332 28.523V12.111L19.4822 10.923L19.4822 28.523ZM30.4332 28.523H36.0332V14.893L30.4332 13.55V28.523Z" fill="#6159A9"/>
    <path d="M0.00195312 14.6419V9.41193L6.08203 7.63116V13.1312L0.00390625 14.638L0.00195312 14.6419ZM12.0781 11.6419V5.86896L18.125 4.09698V10.1439L12.0801 11.6439L12.0781 11.6419Z" fill="#6159A9"/>
    <path d="M37.125 14.642V9.41197L31.045 7.62897V13.129L37.125 14.642ZM25.049 11.642V5.87197L19.002 4.09997V10.147L25.047 11.642H25.049Z" fill="#6159A9"/>
    <path d="M8.21698 5.32794C7.97804 4.77363 7.85795 4.17568 7.86346 3.57208C7.86502 3.09307 7.97357 2.62012 8.17987 2.18781C8.38617 1.7555 8.68543 1.37461 9.05682 1.07208C9.79067 0.467545 10.7059 0.126718 11.6564 0.104797H11.7365C12.6227 0.132399 13.4846 0.402076 14.2287 0.884094C15.0066 1.33767 15.6056 2.04326 15.9279 2.88409C15.0296 2.05715 13.85 1.60507 12.6291 1.62091C11.5002 1.60628 10.4009 1.99047 9.52753 2.70587C9.1323 3.02246 8.81097 3.42109 8.58417 3.87384C8.35736 4.3266 8.23193 4.82281 8.21503 5.32892L8.21698 5.32794Z" fill="#6159A9"/>
    <path d="M28.5717 5.32898C28.8083 4.77287 28.9287 4.1743 28.9257 3.56998C28.9243 3.09095 28.8166 2.61821 28.6103 2.18587C28.4039 1.75354 28.1042 1.37241 27.7327 1.06998C27.0011 0.465523 26.0875 0.124593 25.1387 0.101979H25.0587C24.1725 0.129277 23.3107 0.398683 22.5667 0.88098C21.7886 1.3343 21.1888 2.03998 20.8667 2.88098C21.7615 2.05583 22.9377 1.60367 24.1547 1.61698C25.2836 1.60315 26.3813 1.98768 27.2547 2.70298C27.6508 3.01961 27.9735 3.41832 28.2007 3.87166C28.4279 4.32499 28.5541 4.82218 28.5707 5.32898H28.5717Z" fill="#6159A9"/>
</svg>