<svg width="169" height="170" viewBox="0 0 169 170" fill="none" xmlns="http://www.w3.org/2000/svg">
<g clip-path="url(#clip0_21_91)">
<path d="M84.5 169.5C131.168 169.5 169 131.668 169 85C169 38.3319 131.168 0.5 84.5 0.5C37.8319 0.5 0 38.3319 0 85C0 131.668 37.8319 169.5 84.5 169.5Z" fill="#FEECEB"/>
<path d="M48.773 105.212H113.157C122.379 105.212 131.224 108.876 137.745 115.397C144.266 121.918 147.93 130.763 147.93 139.985V159.485H14V139.988C13.9996 135.421 14.8988 130.899 16.6464 126.68C18.3939 122.46 20.9554 118.626 24.1848 115.397C27.4141 112.168 31.2479 109.606 35.4673 107.859C39.6867 106.111 44.209 105.212 48.776 105.212H48.773Z" fill="#B72A91"/>
<path d="M113.157 105.209H60.4459C55.8784 105.209 51.3557 106.109 47.136 107.857C42.9164 109.606 39.0825 112.168 35.8534 115.398C32.6243 118.629 30.0631 122.463 28.3163 126.684C26.5695 130.904 25.6713 135.427 25.6729 139.994V169.479H147.93V139.994C147.931 135.427 147.033 130.904 145.286 126.684C143.54 122.463 140.978 118.629 137.749 115.398C134.52 112.168 130.686 109.606 126.467 107.857C122.247 106.109 117.724 105.209 113.157 105.209Z" fill="#EC1D8A"/>
<path d="M129.01 105.212H32.9219L45.2069 54.2603H116.722L129.01 105.212Z" fill="#312E72"/>
<path d="M80.9641 127.33C92.6134 127.33 102.057 117.887 102.057 106.237C102.057 94.5879 92.6134 85.1443 80.9641 85.1443C69.3148 85.1443 59.8711 94.5879 59.8711 106.237C59.8711 117.887 69.3148 127.33 80.9641 127.33Z" fill="#F6C6BB"/>
<path d="M49.1816 54.2603H112.749V86.0443C112.749 90.2181 111.927 94.3512 110.329 98.2073C108.732 102.063 106.391 105.567 103.439 108.519C100.488 111.47 96.984 113.811 93.1278 115.408C89.2716 117.005 85.1385 117.827 80.9646 117.827C72.5353 117.827 64.4511 114.479 58.4907 108.518C52.5302 102.558 49.1816 94.4736 49.1816 86.0443V54.2603Z" fill="#F6C6BB"/>
<path d="M85.5112 117.496C93.0725 116.402 99.9865 112.62 104.987 106.844C109.988 101.068 112.742 93.6844 112.743 86.0443V54.2623H58.2842V86.0453C58.2854 93.6841 61.0376 101.067 66.0369 106.843C71.0363 112.618 77.9484 116.4 85.5082 117.496H85.5112Z" fill="#FFDFD8"/>
<path d="M126.156 159.481V132.351C126.156 131.781 125.93 131.234 125.527 130.831C125.124 130.428 124.577 130.201 124.006 130.201C123.436 130.201 122.889 130.428 122.486 130.831C122.083 131.234 121.856 131.781 121.856 132.351V159.481H126.156Z" fill="#B62791"/>
<path d="M40.0734 132.351V159.481H35.7734V132.351C35.7734 131.781 36 131.234 36.4032 130.831C36.8064 130.428 37.3532 130.201 37.9234 130.201C38.4937 130.201 39.0405 130.428 39.4437 130.831C39.8469 131.234 40.0734 131.781 40.0734 132.351Z" fill="#B62791"/>
<path d="M124.012 71.0173C124.011 74.004 122.824 76.868 120.711 78.9795C118.599 81.0911 115.735 82.2773 112.748 82.2773V59.7513C114.227 59.7513 115.692 60.0427 117.059 60.6089C118.426 61.1751 119.668 62.005 120.714 63.0511C121.76 64.0973 122.589 65.3393 123.155 66.7061C123.721 68.073 124.012 69.5379 124.012 71.0173Z" fill="#F6C6BB"/>
<path d="M49.9398 74.0863C49.9398 74.0863 68.3698 68.5333 69.9058 54.2603C69.9058 54.2603 81.5588 74.0303 112.747 73.9033C143.935 73.7763 128 2.51327 68.0628 34.9723C68.0628 34.9723 49.1808 28.8283 43.5488 61.2663L45.2088 71.0133L49.9398 74.0863Z" fill="#5D5CA9"/>
<path d="M68.0628 34.9723L66.2398 34.6193C61.3708 34.0353 48.1128 34.9883 43.5488 61.2703L45.2088 71.0193L49.9398 74.0913C52.8616 73.1218 55.6615 71.8178 58.2838 70.2053C58.2838 70.2053 55.7758 34.8693 68.0628 34.9723Z" fill="#312E72"/>
<path d="M37.918 71.0173C37.919 74.004 39.1062 76.868 41.2185 78.9795C43.3308 81.0911 46.1953 82.2773 49.182 82.2773V59.7513C47.7026 59.7513 46.2377 60.0427 44.871 60.6089C43.5042 61.1751 42.2624 62.005 41.2164 63.0511C40.1704 64.0973 39.3408 65.3393 38.7748 66.7061C38.2089 68.073 37.9177 69.5379 37.918 71.0173Z" fill="#F6C6BB"/>
</g>
<defs>
<clipPath id="clip0_21_91">
<rect y="0.5" width="169" height="169" rx="84.5" fill="white"/>
</clipPath>
</defs>
</svg>
