<svg xmlns="http://www.w3.org/2000/svg" xmlns:svgjs="http://svgjs.com/svgjs" xmlns:xlink="http://www.w3.org/1999/xlink" width="288" height="288"><svg xmlns="http://www.w3.org/2000/svg" width="288" height="288" viewBox="0 0 1000 1000"><rect width="100%" height="100%" fill="#fff" class="colorfff svgShape"/><path style="is-custom-font:none;font-file-url:none" fill="#6159a9" d="m 536.9 379.75 l -57.227 -28.523 h 0.003906 c -4.5742 -2.2812 -9.9531 -2.2812 -14.527 0 l -57.047 28.523 c -2.7188 1.3359 -5.0117 3.4023 -6.6172 5.9688 c -1.6094 2.5664 -2.4688 5.5273 -2.4844 8.5547 c 0 129.15 70 130.73 73.5 130.73 s 73.5 -1.3984 73.5 -130.73 c -0.015625 -3.0273 -0.875 -5.9883 -2.4844 -8.5547 c -1.6055 -2.5664 -3.8984 -4.6328 -6.6172 -5.9688 z m -64.398 112.52 c -13.648 0 -38.852 -20.477 -41.125 -87.5 l 41.125 -20.824 l 40.602 20.301 c -2.2773 68.25 -27.301 87.324 -40.602 88.023 z" class="color000 svgShape" transform="translate(-263.346 -102.724) scale(2.0074)"/><path style="is-custom-font:none;font-file-url:none" fill="#6159a9" d="m 497 35 h -228.73 c -2.1602 -0.015625 -4.3008 0.40234 -6.2969 1.2266 c -0.67578 0.41797 -1.3203 0.88281 -1.9258 1.3984 c -1.1914 0.5625 -2.3086 1.2656 -3.3242 2.1016 l -98 98 v 1.0508 v -0.003906 c -2.6836 2.8281 -4.1289 6.6055 -4.0273 10.5 v 326.73 c 0 12.875 5.0664 25.234 14.105 34.402 c 9.0391 9.1719 21.32 14.414 34.195 14.598 h 163.27 c 5.8477 0 11.25 -3.1172 14.172 -8.1797 c 2.9219 -5.0625 2.9219 -11.301 0 -16.363 c -2.9219 -5.0625 -8.3242 -8.1836 -14.172 -8.1836 h -163.27 c -4.3164 0 -8.457 -1.7148 -11.508 -4.7656 c -3.0508 -3.0508 -4.7656 -7.1914 -4.7656 -11.508 v -310.27 h 81.727 h -0.003906 c 4.3164 0 8.457 -1.7148 11.508 -4.7695 c 3.0547 -3.0508 4.7695 -7.1914 4.7695 -11.508 v -81.723 h 212.27 c 4.3164 0 8.457 1.7148 11.508 4.7656 c 3.0508 3.0508 4.7656 7.1914 4.7656 11.508 v 245 c 0 5.8477 3.1211 11.246 8.1836 14.172 c 5.0625 2.9219 11.301 2.9219 16.363 0 c 5.0625 -2.9258 8.1797 -8.3242 8.1797 -14.172 v -245 c 0 -12.996 -5.1641 -25.457 -14.352 -34.648 c -9.1914 -9.1875 -21.652 -14.352 -34.648 -14.352 z m -287 98 l 42 -42.352 v 42.352 z" class="color000 svgShape" transform="translate(-183.015 -25.48) scale(1.8604)"/><path style="is-custom-font:none;font-file-url:none" fill="#6159a9" d="m 414.4 231 c 0 -17.312 -6.875 -33.914 -19.117 -46.156 s -28.844 -19.117 -46.156 -19.117 s -33.914 6.875 -46.156 19.117 s -19.117 28.844 -19.117 46.156 s 6.875 33.914 19.117 46.156 s 28.844 19.117 46.156 19.117 c 17.297 -0.042969 33.875 -6.9375 46.105 -19.168 s 19.125 -28.809 19.168 -46.105 z m -98 0 c 0 -8.6797 3.4492 -17.004 9.5859 -23.141 s 14.461 -9.5859 23.141 -9.5859 s 17.004 3.4492 23.141 9.5859 s 9.5859 14.461 9.5859 23.141 s -3.4492 17.004 -9.5859 23.141 s -14.461 9.5859 -23.141 9.5859 s -17.004 -3.4492 -23.141 -9.5859 s -9.5859 -14.461 -9.5859 -23.141 z" class="color000 svgShape" transform="translate(-263.355 -102.738) scale(2.0074)"/><path style="is-custom-font:none;font-file-url:none" fill="#6159a9" d="m 415.27 345.45 c 0 -4.3164 -1.7148 -8.457 -4.7656 -11.508 c -3.0508 -3.0508 -7.1914 -4.7656 -11.508 -4.7656 h -116.38 c -5.8477 0 -11.246 3.1172 -14.172 8.1797 c -2.9219 5.0625 -2.9219 11.301 0 16.363 c 2.9258 5.0625 8.3242 8.1797 14.172 8.1797 h 116.38 c 4.3477 0 8.5117 -1.7383 11.57 -4.8281 c 3.0586 -3.0898 4.75 -7.2734 4.7031 -11.621 z" class="color000 svgShape" transform="translate(-263.356 -102.726) scale(2.0074)"/><path style="is-custom-font:none;font-file-url:none" fill="#6159a9" d="m 282.62 394.45 c -5.8477 0 -11.246 3.1211 -14.172 8.1836 c -2.9219 5.0625 -2.9219 11.297 0 16.359 c 2.9258 5.0625 8.3242 8.1836 14.172 8.1836 h 67.375 c 5.8477 0 11.246 -3.1211 14.172 -8.1836 c 2.9219 -5.0625 2.9219 -11.297 0 -16.359 c -2.9258 -5.0625 -8.3242 -8.1836 -14.172 -8.1836 z" class="color000 svgShape" transform="translate(-263.356 -102.721) scale(2.0074)"/></svg></svg>