<svg xmlns="http://www.w3.org/2000/svg" xmlns:xlink="http://www.w3.org/1999/xlink" width="535.453" height="504.147" xmlns:v="https://vecta.io/nano"><style><![CDATA[.B{fill:#f68867}.C{fill:#f47448}.D{fill:#1f151f}.E{fill:#2f1522}.F{fill:#dd2e22}.G{fill:#b0e3c9}.H{fill:#37ac7c}.I{fill:#f0cd99}]]></style><path d="M85.983 498.724c-23.276 0-37.455-15.328-54.899-43.863-10.308-16.864-18.264-33.321-23.546-50.627 6.174 10.619 15.041 19.666 24.943 27.02 12.311 9.144 26.234 15.861 40.272 22.031 16.918 7.437 37.852 12.861 57.982 15.381l-.1.767 10.647.291 2.316.159c-1.775 6.113-5.079 8.627-5.079 8.627 3.865 2.651 7.761 3.46 11.08 3.46 5.221 0 9.016-2.005 9.016-2.005-.501-3.54-.58-6.86-.441-9.78l6.733.184L197 308.474c3.228 17.997.661 163.085.661 163.085l5.576-.2c-.215 3.585-.628 7.091-1.384 9.598 0 0 3.795 2.006 9.016 2.006a19.29 19.29 0 0 0 11.08-3.459s-2.852-.985-4.105-8.665l13.775-.492.445-13.431c7.196 7.616 17.644 11.785 29.919 11.785 1.937 0 3.828-.104 5.668-.308a53.39 53.39 0 0 0 2.857.075c23.572 0 40.408-15.377 40.408-40.998 0-26.133-16.836-39.567-40.408-39.567a57.87 57.87 0 0 0-5.856.291 60.99 60.99 0 0 0-2.669-.059c-11.283 0-21.025 3.079-28.113 9.155l1.36-55.158c2.397 2.212 5.608 3.58 9.16 3.58h36.979a13.48 13.48 0 0 0 2.491-.232h6.035c6.461 0 11.984-4.601 13.205-10.945 8.679-45.053 69.694-58.427 69.694-134.586 0-60.468-43.776-94.801-106.916-94.801-3.079 0-6.103.079-9.081.233-11.781.036-22.82 1.221-33.116 3.453 18.729-29.453 36.599-60.856 60.245-81.55C304.958 8.877 329.829.008 354.582.008a104.29 104.29 0 0 1 15.673 1.188c29.717 4.517 58.007 21.389 82.19 45.544 39.241 39.195 68.178 98.661 77.708 164.826s-1.013 138.386-30.181 192.981c-29.141 54.545-76.841 89.847-125.366 89.847-.044 0-.097 0-.141-.002l-280.744 3.81c-2.692.348-5.266.521-7.738.521m51.744-81.514c-2.232-2.472-4.762-4.644-7.654-6.288-3.303-1.877-7.136-2.985-10.914-2.985-2.381 0-4.739.44-6.931 1.403-.78.343-1.637.751-2.454.751-.297 0-.589-.055-.87-.185-.687-.32-1.101-1.02-1.484-1.675-5.275-8.991-12.868-16.393-20.871-23.071-16.61-13.857-36.534-25.42-58.162-25.844l-.926-.009c-9.104 0-18.947 2.648-23.953 10.187a18.79 18.79 0 0 0-2.259 4.751c-1.547-13.141-1.676-27.052-.271-42.164 6.144-66.108 50.138-115.866 96.427-133.229 17.319-6.496 35.383-9.573 52.547-16.432l13.381 9.559-.271 2.617c-.875 8.497.171 2.944.821 11.461.356 4.664-.679 22.853-.469 28.043l.013.291a67.26 67.26 0 0 1 .1 3.775c-.001 3.855-.287 7.713-.572 11.561h0 0 0l.135.017a1.71 1.71 0 0 1 .087.011c.027.004.053.007.08.011l.132.016.58.076.185.023.793.103c-8.352 36.407-19.884 114.694-27.22 167.229m98.004-105.64c.173-15.8.125-28.112-.281-33.777-.707-9.839-3.207-19.143-6.044-26.913.237-.503.273-1.135.28-1.709l.151-18.127.653-31.829a467.09 467.09 0 0 0 26.184-16.168l.181-.12c.673-.448 1.397-.965 1.605-1.748a1.86 1.86 0 0 0 .06-.475c-.001-.609-.275-1.221-.548-1.784h0l-.053-.112h0l-.821-1.668c-.023-.043-.036-.071-.049-.099-.005-.011-.011-.021-.017-.032a.69.69 0 0 0-.027-.055 155.96 155.96 0 0 0-2.239-4.293c24.788 1.681 40.892 17.16 40.892 40.844 0 36.464-43.929 53.728-59.927 98.065" fill="#f5f5f3"/><path d="M478.119 496.278c0 4.345-96.293 7.868-215.074 7.868S47.97 500.624 47.97 496.278s96.293-7.868 215.075-7.868 215.074 3.522 215.074 7.868m-149.417-42.653c8.177-16.836 18.193-33.319 32.888-44.909 5.629-4.44 12.041-8.157 19.103-9.393s14.857.312 20.065 5.239c.979.924 2.063 2.038 3.403 1.915.875-.08 1.597-.684 2.272-1.246 9.257-7.737 20.423-12.844 31.751-16.997 23.509-8.619 49.735-13.445 73.47-5.467 10.267 3.451 20.544 10.288 23.144 20.8 2.576 10.433-3.208 21.176-10.457 29.107-11.979 13.101-28.24 21.736-45.224 26.896s-34.781 7.047-52.488 8.293c-30.772 2.167-69.009-3.488-97.926-14.236" class="G"/><g fill="#fff"><path d="M336.83 450.707l36.637-4.858c12.185-1.751 24.347-3.697 36.435-6.038 12.04-2.33 24.011-5.04 35.827-8.327 11.717-3.26 23.197-7.249 34.715-11.144 11.437-3.867 22.957-7.588 34.78-10.101l4.385-.868c.964-.179.871-1.716-.104-1.536-11.864 2.187-23.424 5.673-34.857 9.472-11.511 3.823-22.928 7.926-34.571 11.336-11.797 3.455-23.765 6.309-35.811 8.749-12.091 2.448-24.267 4.469-36.468 6.274l-36.631 4.94-4.44.566c-.981.122-.881 1.66.103 1.534"/><path d="M363.616 446.908l22.185-11.169 22.427-11.292 12.407-6.248c.372-.188.429-.748.22-1.067-.253-.381-.695-.405-1.068-.219l-22.184 11.171-22.427 11.292-12.409 6.248c-.371.187-.428.749-.217 1.067.252.38.695.407 1.067.218m50.523-7.986c8.184 1.817 16.324 3.828 24.453 5.865l25.159 6.283 13.48 3.152c.967.215 1.257-1.297.289-1.513-8.184-1.817-16.324-3.828-24.453-5.867l-25.159-6.281-13.48-3.152c-.967-.215-1.257 1.297-.289 1.513m46.411-12.016c7.472-7.153 15.716-13.636 24.577-18.986 2.399-1.448 4.853-2.812 7.38-4.028.373-.181.628-.548.484-.976-.119-.355-.597-.665-.973-.484-9.496 4.573-18.192 10.827-26.189 17.65-2.199 1.876-4.351 3.812-6.439 5.812-.301.287-.22.829.075 1.085.336.295.783.216 1.085-.073"/></g><path d="M328.159 409.907a85.14 85.14 0 0 1-2.44-48.248c1.859-7.617 4.848-15.088 9.779-21.183s11.965-10.725 19.747-11.693c1.133-.143 2.416-.279 3.113-1.183.511-.66.559-1.553.608-2.387 1.248-21.771 16.043-40.267 31.659-55.488 7.172-6.991 14.755-13.711 23.556-18.489s18.98-7.519 28.892-6.091c5.815.837 11.367 3.077 16.44 6.04 4.755 2.779 9.233 6.319 12.025 11.065 3.492 5.933 4.013 13.293 2.517 20.013s-4.857 12.888-8.728 18.58c-5.501 8.093-12.113 15.431-19.592 21.743-.853.719-1.784 1.549-1.875 2.661-.123 1.553 1.397 2.656 2.623 3.619 6.672 5.233 8.413 15.048 6.019 23.183s-8.175 14.833-14.412 20.576c-12.864 11.852-28.252 20.752-44.441 27.374-7.201 2.947-14.624 5.468-22.309 6.676-5.795.912-11.677 1.068-17.529 1.491-7.481.539-18.213.764-25.651 1.74" fill="#52ac87"/><g fill="#fff"><path d="M333.069 407.67l23.651-26.776 23.068-27.484 22.271-27.935 21.561-28.487 20.836-29.021 2.575-3.696c.56-.805-.583-1.839-1.147-1.028l-20.744 29.088-21.564 28.677-22.187 28.003-22.883 27.438-23.567 26.849-3.019 3.344c-.667.736.483 1.761 1.148 1.028"/><path d="M354.858 382.898c2.344-8.1 4.941-16.124 7.701-24.092 2.741-7.911 5.644-15.767 8.619-23.593l5.119-13.315c.149-.388.059-.835-.339-1.035-.341-.173-.884-.053-1.036.337l-9.023 23.745c-2.929 7.955-5.747 15.952-8.361 24.016l-4.187 13.628c-.276.952 1.233 1.255 1.507.308m27.801-33.195c7.465-3.528 14.809-7.316 21.987-11.396 7.307-4.151 14.448-8.603 21.317-13.445a190.78 190.78 0 0 0 10.925-8.279c.321-.263.464-.695.217-1.067-.211-.32-.744-.483-1.067-.219-6.353 5.199-13.072 9.94-19.991 14.353-7.016 4.476-14.244 8.619-21.613 12.483a331.95 331.95 0 0 1-12.271 6.111c-.376.177-.627.551-.481.977.121.359.599.66.976.481m29.652-37.707c1.372-6.443 3.124-12.8 5.141-19.069 2.028-6.308 4.329-12.528 6.821-18.668 1.389-3.424 2.841-6.824 4.341-10.201.403-.904-.971-1.605-1.372-.699-2.691 6.053-5.219 12.18-7.527 18.389-2.332 6.28-4.448 12.645-6.245 19.097-.997 3.588-1.892 7.201-2.668 10.841-.207.971 1.303 1.279 1.508.309"/></g><g class="H"><path d="M413.655 382.124a191.25 191.25 0 0 1 12.897-9.817c4.452-3.1 9.037-6.009 13.736-8.721a189.63 189.63 0 0 1 14.276-7.459c4.911-2.304 9.92-4.4 15.011-6.281 5.068-1.872 10.217-3.529 15.428-4.964l1.941-.524c.468-.124.717-.684.575-1.125-.157-.48-.659-.697-1.125-.573-5.265 1.391-10.472 3.007-15.599 4.844-5.089 1.823-10.1 3.861-15.015 6.107a194.96 194.96 0 0 0-14.653 7.447 191.68 191.68 0 0 0-13.831 8.571 190.37 190.37 0 0 0-13.052 9.716l-1.553 1.278c-.371.308-.553.793-.271 1.234.236.368.863.58 1.235.269"/><path d="M474.661 346.863a121.78 121.78 0 0 1 39.407-15.948c5.56-1.177 11.419-1.951 16.864-.319 2.537.76 5.359 3.116 4.279 5.536-.36.808-1.091 1.377-1.817 1.881-6.479 4.496-14.449 6.195-22.228 7.484-12.471 2.067-23.872.897-36.504 1.365m-20.424 7.958a121.74 121.74 0 0 1 22.895-35.817c3.851-4.18 8.181-8.204 13.564-10.025 2.511-.851 6.173-.561 6.696 2.036.173.867-.092 1.756-.392 2.587-2.68 7.416-8.196 13.416-13.791 18.971-8.971 8.907-18.945 14.555-28.972 22.249"/><path d="M459.619 352.056a121.8 121.8 0 0 1 42.511-.045c5.596.991 11.32 2.465 15.759 6.015 2.069 1.656 3.801 4.896 1.896 6.737-.636.613-1.528.868-2.389 1.065-7.691 1.744-15.717.337-23.415-1.379-12.337-2.751-22.473-8.103-34.361-12.393m-27.558 15.195a121.77 121.77 0 0 1 14.553-39.941c2.849-4.916 6.2-9.787 11.059-12.737 2.264-1.375 5.903-1.891 6.976.533.359.807.293 1.733.181 2.609-1.001 7.821-5.08 14.877-9.332 21.516-6.817 10.645-15.324 18.329-23.437 28.02m-13.302 9.7a102.42 102.42 0 0 1 4.819-35.423c1.463-4.549 3.345-9.149 6.811-12.443 1.616-1.535 4.513-2.608 5.828-.809.439.599.551 1.372.615 2.112.576 6.605-1.513 13.132-3.821 19.348-3.7 9.965-9.317 17.8-14.251 27.215"/><path d="M435.734 365.306c14.02-2.507 28.484-2.521 42.511-.043 5.596.988 11.32 2.464 15.759 6.015 2.069 1.655 3.801 4.895 1.896 6.734-.636.614-1.528.871-2.389 1.066-7.689 1.745-15.717.338-23.415-1.379-12.337-2.748-22.473-8.1-34.361-12.393m-12.144 8.141a92.43 92.43 0 0 1 31.852 5.217c4.071 1.432 8.176 3.243 11.063 6.452 1.347 1.495 2.244 4.136.588 5.28-.552.381-1.251.461-1.92.501-5.977.359-11.817-1.687-17.371-3.922-8.903-3.583-15.835-8.845-24.212-13.528"/></g><path d="M156.541 470.228c-1.748-16.074-5.092-32.397-13.668-46.105-3.285-5.249-7.416-10.14-12.8-13.201s-12.174-4.073-17.845-1.582c-1.064.467-2.27 1.055-3.324.565-.687-.32-1.101-1.02-1.484-1.675-5.275-8.991-12.868-16.393-20.871-23.071-16.61-13.857-36.534-25.42-58.162-25.844-9.354-.184-19.704 2.383-24.879 10.177-5.134 7.733-3.559 18.155.028 26.716 5.926 14.143 16.636 25.902 28.947 35.045s26.234 15.861 40.272 22.031c24.396 10.724 57.14 17.262 83.788 16.944" class="G"/><g fill="#fff"><path d="M150.78 465.485L122.4 450.864c-9.402-4.972-18.724-10.097-27.874-15.521-9.114-5.4-18.059-11.092-26.711-17.207-8.581-6.064-16.756-12.651-24.988-19.172-8.175-6.476-16.46-12.857-25.344-18.345l-3.313-1.984c-.732-.424-.208-1.648.531-1.219 9.011 5.233 17.397 11.437 25.591 17.856 8.247 6.46 16.338 13.124 24.815 19.288 8.587 6.245 17.488 12.051 26.575 17.544 9.121 5.513 18.433 10.703 27.832 15.725l28.352 14.684 3.447 1.753c.761.387.233 1.608-.532 1.219"/><path d="M130.102 454.596l-14.789-15.545-14.95-15.714-8.272-8.696c-.247-.26-.131-.734.133-.931.316-.237.682-.129.931.132l14.789 15.546 14.95 15.714 8.272 8.695c.247.261.13.735-.133.932-.316.236-.682.128-.931-.133m-38.765-21.209c-7.185-.906-14.39-1.642-21.597-2.352l-22.291-2.217-11.879-1.364c-.849-.107-.646-1.421.205-1.314 7.184.905 14.39 1.64 21.596 2.351l22.291 2.218 11.88 1.363c.85.107.646 1.423-.205 1.316m-34.245-23.291c-3.993-7.995-8.81-15.667-14.458-22.598-1.53-1.879-3.129-3.702-4.829-5.427-.252-.256-.352-.627-.111-.935.201-.253.681-.367.934-.11 6.39 6.484 11.642 14.104 16.158 21.982a130.24 130.24 0 0 1 3.544 6.603c.16.321-.063.738-.376.861-.359.142-.701-.053-.862-.376"/></g><g class="H"><path d="M156.057 379.652c-4.529-2.949-8.932-6.089-13.195-9.413a192.04 192.04 0 0 1-12.396-10.54c-3.94-3.648-7.732-7.46-11.349-11.428-3.654-4.009-7.14-8.175-10.442-12.48a190.35 190.35 0 0 1-9.309-13.267l-1.074-1.7c-.256-.409-.866-.483-1.245-.215-.414.291-.472.835-.216 1.244 2.888 4.617 5.972 9.112 9.244 13.467 3.247 4.32 6.677 8.503 10.277 12.533 3.651 4.089 7.468 8.028 11.449 11.795 3.941 3.729 8.04 7.292 12.281 10.673a190.28 190.28 0 0 0 13.144 9.59l1.68 1.106c.404.264.921.293 1.259-.107.281-.333.299-.995-.108-1.259"/><path d="M104.319 331.816a121.79 121.79 0 0 1-26.896-32.92c-2.771-4.964-5.244-10.333-5.297-16.015-.024-2.652 1.392-6.04 4.023-5.727.877.105 1.64.633 2.335 1.179 6.211 4.857 10.193 11.968 13.726 19.017 5.665 11.3 7.922 22.539 12.108 34.465m13.648 17.155a121.77 121.77 0 0 1-40.989-11.268c-5.132-2.443-10.257-5.388-13.591-9.991-1.555-2.147-2.364-5.731-.035-6.997.775-.423 1.704-.431 2.586-.391 7.877.363 15.241 3.856 22.203 7.557 11.161 5.933 19.509 13.789 29.827 21.089m-4.236-4.321c-6.544-12.651-10.839-26.463-12.623-40.593-.712-5.639-.997-11.543 1.081-16.833.968-2.467 3.551-5.081 5.873-3.804.774.424 1.282 1.201 1.724 1.967 3.942 6.828 4.974 14.913 5.614 22.772 1.025 12.599-1.087 23.865-1.669 36.492m22.673 21.823c-14.129 1.804-28.575 1.096-42.46-2.079-5.541-1.268-11.183-3.027-15.44-6.793-1.984-1.757-3.553-5.08-1.557-6.823.665-.581 1.569-.792 2.439-.944 7.767-1.36 15.715.448 23.316 2.545 12.184 3.361 22.041 9.213 33.701 14.093m13.202 9.836c-11.288 4.008-23.285 6.008-35.262 5.88-4.779-.049-9.731-.487-13.9-2.821-1.945-1.088-3.828-3.539-2.499-5.328.443-.596 1.148-.931 1.836-1.212 6.14-2.505 12.993-2.44 19.613-2.076 10.613.585 19.758 3.631 30.213 5.557m-16.149-12.765a121.81 121.81 0 0 1-12.623-40.593c-.712-5.639-.997-11.543 1.081-16.832.968-2.468 3.551-5.081 5.873-3.805.775.424 1.283 1.201 1.725 1.967 3.942 6.829 4.974 14.913 5.614 22.772 1.024 12.599-1.088 23.865-1.669 36.492m11.37 9.187c-3.34-10.285-4.852-21.163-4.444-31.968.163-4.312.679-8.771 2.888-12.476 1.029-1.729 3.288-3.369 4.869-2.125.528.413.813 1.059 1.049 1.685 2.111 5.603 1.885 11.787 1.393 17.753-.788 9.564-3.761 17.743-5.756 27.131"/></g><path d="M221.574 427.703c0-26.134 16.837-39.567 40.408-39.567s40.409 13.432 40.409 39.567c0 25.621-16.836 40.999-40.409 40.999s-40.408-15.378-40.408-40.999m74.082-214.198c0-25.109-18.1-40.996-45.46-40.996-22.465 0-40.54 9.977-53.735 26.963-4.489 5.776-12.641 7.141-18.595 2.889l-29.549-21.109c-5.833-4.167-7.452-12.228-3.509-18.216 23.447-35.609 60.855-57.656 112.544-57.656 63.139 0 106.914 34.333 106.914 94.8 0 76.16-61.016 89.534-69.693 134.588-1.221 6.344-6.745 10.945-13.207 10.945h-36.979c-8.139 0-14.493-7.184-13.343-15.24 8.429-59.047 64.611-75.732 64.611-116.968" fill="#dfa85e"/><path d="M230.099 427.471c0-26.133 16.837-39.567 40.408-39.567s40.408 13.433 40.408 39.567c0 25.621-16.836 40.998-40.408 40.998s-40.408-15.377-40.408-40.998m74.082-214.198c0-25.109-18.101-40.995-45.46-40.995-22.465 0-40.54 9.977-53.735 26.961-4.489 5.777-12.643 7.141-18.595 2.889l-29.549-21.109c-5.833-4.167-7.453-12.228-3.511-18.216 23.447-35.608 60.857-57.656 112.544-57.656 63.14 0 106.916 34.333 106.916 94.801 0 76.16-61.016 89.533-69.694 134.586-1.221 6.344-6.744 10.945-13.205 10.945h-36.979c-8.139 0-14.493-7.184-13.343-15.24 8.429-59.047 64.611-75.732 64.611-116.968" class="I"/><path d="M430.586 163.086c1.239-5.025 5.112-6.812 9.647-5.695s7.135 4.496 5.897 9.523c-1.215 4.928-5.18 7.087-9.715 5.971s-7.041-4.872-5.829-9.799zm24.393-37.685c1.189-4.829-1.539-8.741-6.8-10.037-4.323-1.064-8.269 0-11.612 2.641-1.137.897-2.769.773-3.712-.325l-4.684-5.459c-.925-1.079-.855-2.705.187-3.671 6.197-5.737 14.436-8.205 24.376-5.757 12.143 2.991 18.935 11.667 16.071 23.295-3.607 14.647-15.975 14.329-19.777 22.584a2.67 2.67 0 0 1-3.059 1.479l-7.111-1.752c-1.564-.385-2.447-2.068-1.844-3.563 4.417-10.956 16.012-11.504 17.965-19.435M100.34 235.125c-2.504-4.529-.872-8.472 3.212-10.729s8.292-1.545 10.796 2.985c2.455 4.441 1.01 8.72-3.075 10.979s-8.478 1.207-10.933-3.235zm-7.684-44.228c-2.406-4.352-7.067-5.371-11.809-2.749-3.894 2.153-6.071 5.615-6.73 9.823-.225 1.432-1.507 2.449-2.946 2.283l-7.145-.827c-1.41-.164-2.463-1.405-2.354-2.821.652-8.42 5.023-15.825 13.983-20.779 10.944-6.051 21.822-4.293 27.616 6.187 7.298 13.201-1.996 21.367.817 30.008.396 1.216-.12 2.543-1.24 3.163l-6.41 3.544c-1.41.78-3.201.143-3.773-1.364-4.197-11.043 3.942-19.319-.009-26.467M261.321 68.205c.072-4.191 2.809-6.299 6.589-6.232s6.443 2.265 6.371 6.456c-.072 4.109-2.813 6.528-6.595 6.463s-6.437-2.577-6.365-6.687zm12.476-34.143c.068-4.027-2.789-6.624-7.176-6.7-3.603-.063-6.529 1.488-8.692 4.173-.736.915-2.047 1.111-2.989.412l-4.68-3.467c-.924-.685-1.161-1.981-.513-2.931 3.86-5.645 9.92-9.076 18.208-8.933 10.125.176 17.049 5.804 16.881 15.5-.212 12.213-10.033 14.188-11.551 21.388a2.16 2.16 0 0 1-2.148 1.719l-5.929-.103c-1.305-.023-2.304-1.192-2.097-2.481 1.516-9.445 10.572-11.965 10.687-18.577" class="G"/><path d="M370.96 460.718s-3.152 9.455-1.455 21.453c0 0-10.149 5.362-20.096-1.455 0 0 8.264-6.288 5.672-23.15" class="B"/><path d="M326.277 492.34c.297-.62.756-1.157 1.376-1.508 3.372-1.919 11.589-6.467 24.008-12.572 0 0 6.957 2.333 17.521 1.004 0 0 1.12 6.924.995 12.657-6.469.285-31.429 1.29-43.9.419" fill="#601b2a"/><g class="E"><path d="M370.176 491.921l-.187 3.969h-44.075v-2.074c0-.526.143-1.021.361-1.476 12.471.871 37.431-.133 43.9-.419m-29.325-6.448a.78.78 0 1 1-1.56 0 .78.78 0 0 1 1.56 0m5.842-2.502a.78.78 0 1 1-1.56 0 .78.78 0 1 1 1.56 0"/><use xlink:href="#B"/></g><path d="M398.672 455.983s5.047 19.284 2.733 26.96c0 0 10.149 5.363 20.096-1.455 0 0-9.7-3.27-6.397-30.664" class="B"/><path d="M444.635 493.112c-.297-.62-.756-1.157-1.376-1.508-3.373-1.919-11.589-6.467-24.009-12.572 0 0-6.955 2.333-17.519 1.004 0 0-1.121 6.925-.996 12.658 6.468.285 31.428 1.289 43.9.418" fill="#601b2a"/><g class="E"><path d="M400.735 492.694l.187 3.969h44.075v-2.075c0-.525-.141-1.021-.361-1.476-12.472.871-37.432-.133-43.9-.418m20.19-11.495a.78.78 0 1 1-1.56 0 .78.78 0 1 1 1.56 0"/><use xlink:href="#B" x="81.806" y="7.707"/><use xlink:href="#B" x="74.47" y="4.659"/></g><path d="M365.53 150.006c3.208 5.316 3.767 11.712 2.481 17.652s-4.303 11.473-7.897 16.584c6.539 4.396 14.512 7.037 22.653 7.505 3.188.183 6.523.011 9.341-1.344-2.887-2.54-4.393-6.084-5.44-9.595-2.056-6.892-2.664-14.133-1.783-21.225" class="B"/><path d="M374.367 161.702c2.527 1.379 6.692 3.308 10.141 3.989.009-2.04.127-4.08.377-6.108l-19.356-9.577c.759 1.255 1.356 2.575 1.828 3.931 1.723 3.057 3.819 6.025 7.009 7.765" class="C"/><path d="M395.747 136.477l-.171-.86 5.771-1.152.171.86-5.771 1.152" class="F"/><g class="B"><path d="M376.318 119.686c5.38-1.464 11.339.607 15.353 4.476s6.951 9.872 7.843 15.376.607 8.965.088 14.517c-.136 1.468-1.087 4.619-2.003 5.773s-2.08 2.245-3.48 2.712c-2.217.74-6.432.917-9.892.297-5.487-.985-10.295-2.628-14.2-6.607s-4.073-7.697-3.32-13.221"/><path d="M367.791 147.586c-.797-.631-1.663-1.207-2.641-1.485s-2.085-.227-2.936.329c-.816.535-1.307 1.484-1.419 2.452s.127 1.953.532 2.841c.723 1.581 2.085 2.96 3.792 3.292s3.687-.649 4.115-2.336c.281-1.116-.117-2.284-.579-3.339"/></g><path d="M366.468 148.673c-.281-.223-.589-.428-.937-.527s-.739-.081-1.041.116c-.291.191-.464.527-.504.871s.045.693.189 1.008c.256.561.74 1.051 1.347 1.169s1.308-.231 1.459-.829c.1-.396-.041-.811-.204-1.185" class="C"/><g class="D"><path d="M360.975 129.121c-1.895.273-3.827.285-5.727.036-1.639-.215-3.276-.633-4.707-1.461-2.549-1.477-4.256-4.205-4.785-7.104s.049-5.935 1.316-8.595c1.08-2.273 2.733-4.369 5.001-5.463 2.412-1.163 5.245-1.073 7.876-.569 3.147.603 6.4 1.935 8.1 4.651 2.003 3.197 1.315 7.352.213 10.96"/><path d="M399.054 130.19c-1.081-6.605-6.241-12.231-12.565-14.424s-13.569-1.108-19.307 2.34c-1.857 1.116-3.564 2.459-5.268 3.797-1.473 1.16-2.961 2.333-4.131 3.799-2.115 2.653-3.04 6.131-2.981 9.523s1.045 6.715 2.42 9.816c.448 1.015.993 2.069 1.957 2.615 2.039 1.157 4.48-.535 6.813-.756.269-.025.559-.025.784.123.345.225.409.695.445 1.105a50.26 50.26 0 0 0 5.08 17.992c.565 1.133 1.203 2.277 2.205 3.051-2.188-7.227-3.215-13.727-3.049-21.275l.087-1.113c.097-1.153.368-3.116.452-3.519.744-3.596 1.525-4.781 2.268-8.377l2.037 4.383c.207.445.464.936.933 1.081.46.141.94-.107 1.357-.345l7.832-4.496c.303-.173.623-.367.765-.684.12-.267.093-.573.063-.865l-.484-4.643 4.061 3.847c.255.241.529.493.875.559.333.064.671-.06.987-.181l5.716-2.188c.213-.081.441-.173.568-.363.155-.228.123-.528.079-.8"/></g><path d="M355.952 130.185c2.945-4.167 7.451-9.32 13.695-13.284 1.843-1.169.827-4.04-1.337-3.752-6.103.811-13.719 4.169-16.024 15.428-.441 2.155 2.397 3.404 3.667 1.608" class="F"/><path d="M385.482 137.108c-2.647.031-6.012.329-7.296 1.916-.64.788-1.477.672-.899-.176 1.795-2.625 4.404-3.032 8.245-3.375.42-.037.785.397.769.879-.011.399-.393.845-.82.756" class="D"/><path d="M377.35 150.262c.597 1.929 3.377 2.78 6.212 1.903s4.645-3.153 4.048-5.081-3.379-2.781-6.212-1.903-4.647 3.153-4.048 5.081" class="C"/><path d="M395.096 136.277c.225.731.751 1.216 1.172 1.085s.58-.828.353-1.557-.752-1.216-1.172-1.085-.58.828-.353 1.557m-12.15 4.872c.255.824.925 1.348 1.497 1.171s.829-.989.575-1.813-.927-1.348-1.499-1.171-.829.989-.573 1.813" class="D"/><path d="M393.499 144.609c.441-.265.789-.624 1.087-1.028-1.803-.924-3.169-2.664-3.585-4.653-.057-.268.044-.549.325-.641.241-.079.587.055.643.327a5.97 5.97 0 0 0 3.613 4.316c.252.101.345.459.224.685a4.77 4.77 0 0 1-1.744 1.844c-.561.337-1.125-.511-.563-.849" fill="#f3633b"/><path d="M396.952 148.68s-2.172 2.197-5.667 1.905c0 0 5.527 2.6 5.667-1.905" fill="#ef2d3b"/><g class="F"><path d="M382.824 136.06c-.493 0-.987.073-1.468.223-2.712.84-4.203 3.833-3.321 6.673a5.48 5.48 0 0 0 2.576 3.197c1.225.681 2.624.833 3.936.427 2.711-.84 4.201-3.833 3.321-6.673-.427-1.377-1.343-2.513-2.576-3.199a5.07 5.07 0 0 0-2.468-.648zm.255 11.62c-.995 0-1.985-.255-2.893-.759a6.36 6.36 0 0 1-2.991-3.707c-1.02-3.3.728-6.787 3.901-7.769 1.541-.48 3.18-.303 4.623.496 1.431.795 2.493 2.111 2.988 3.707 1.023 3.301-.728 6.787-3.9 7.769-.567.176-1.149.263-1.728.263m13.135-16.914c-.312 0-.621.039-.925.116-2.377.607-3.716 3.444-2.984 6.324s3.265 4.732 5.649 4.123c1.137-.291 2.076-1.099 2.641-2.276.58-1.201.7-2.64.34-4.047v-.001c-.36-1.409-1.153-2.615-2.239-3.392-.776-.559-1.633-.847-2.483-.847zm.827 11.555c-2.475 0-4.843-1.991-5.584-4.897-.853-3.349.769-6.665 3.616-7.391 1.393-.357 2.864-.048 4.137.868 1.251.899 2.165 2.279 2.575 3.887s.269 3.259-.397 4.647c-.68 1.413-1.823 2.388-3.217 2.744a4.55 4.55 0 0 1-1.129.143"/><path d="M371.931 144.666l-.172-.86 5.769-1.152.172.86-5.769 1.152m16.471-5.242l-.693-.54c.088-.111 2.128-2.681 4.449-1.631l-.359.799c-1.697-.764-3.383 1.349-3.397 1.372"/></g><path d="M347.302 251.627s-6.183 15.599-9.029 44.545l-17.251 169.779s48.208 5.895 64.173 2.402c0 0-5.833-146.105-2.956-172.556l11.239 171.932s38.631 2.184 60.825-4.304c0 0-33.004-177.944-48.053-210.903" fill="#f57718"/><path d="M381.468 316.735l-.524-3.177c-2.581 36.061-5.38 72.248-9.311 108.13-1.373 12.528-.145 30.348-12.953 37.359-5.715 3.127-12.345 4.108-18.677 5.167-5.055.845-10.109 1.584-15.183 2.177 11.665 1.295 47.12 4.864 60.375 1.963 0 0-4.108-102.903-3.727-151.618m-22.494-54.49c15.553-2.571 33.099-2.147 47.284-9.704l-.008-1.515-58.948.6s-3.308 8.355-6.197 24.164c3.885-6.735 9.243-12.119 17.869-13.545m77.418 200.745c-7.909-1.046-17.348-1.463-24.681-4.797-5.279-2.403-8.372-6.591-10.079-12.052-2.575-8.24-3.588-17.305-4.953-25.807-3.228-20.091-4.199-40.455-7.193-60.573-1.288-8.66-3.033-17.232-4.753-25.808l8.745 133.776s33.98 1.921 56.512-3.192c-4.683-.168-9.493-1.003-13.597-1.547" fill="#ec6719"/><path d="M334.48 465.878a907.35 907.35 0 0 1 .452-42.382c.481-14.121 1.296-28.228 2.437-42.311 1.139-14.006 2.6-27.986 4.387-41.925a902.06 902.06 0 0 1 6.423-42.139c2.455-13.889 5.233-27.723 8.341-41.48l1.167-5.103c.148-.64-.836-.912-.984-.271a902.61 902.61 0 0 0-8.62 41.632 904.82 904.82 0 0 0-6.6 41.679 906.74 906.74 0 0 0-4.676 42.172 907.2 907.2 0 0 0-2.692 42.293 901.68 901.68 0 0 0-.707 42.588l.052 5.246c.008.656 1.028.657 1.02 0m31.635-218.088c.064 14.235-.295 28.468-.843 42.691l-2.053 43.499-1.953 43.581c-.484 14.386-.585 28.767-.605 43.159l-.331 41.886-.112 4.923c-.017.657 1.004.657 1.02 0l.435-41.294.444-43.282 1.847-43.499 2.112-43.535c.595-14.273 1.029-28.557 1.065-42.844l-.005-5.285c-.001-.657-1.023-.659-1.02 0m12.767 2.913a560.57 560.57 0 0 1 2.791 35.716l.372 10.137c.019.655 1.037.657 1.02 0-.331-11.928-1.043-23.844-2.137-35.724l-1.024-10.129c-.072-.645-1.093-.652-1.021 0m10.956 1.609c3.129 13.779 5.483 27.724 7.288 41.736 1.801 13.995 3.073 28.053 4.095 42.125l2.58 42.148 2.751 42.361c1.113 13.925 2.525 27.83 4.497 41.662l.787 5.32c.099.645 1.081.371.983-.272-2.14-13.993-3.677-28.071-4.873-42.173s-2.057-28.222-2.865-42.348l-2.517-42.16c-.972-14.081-2.161-28.148-3.855-42.161-1.672-13.837-3.828-27.623-6.731-41.259l-1.156-5.251c-.144-.641-1.129-.369-.983.271m11.559-.901l9.965 41.397 8.864 41.625 7.752 41.824 6.639 41.999 5.551 42.425.6 5.2c.075.644 1.095.652 1.021 0l-5.36-42.091-6.484-42.02-7.641-42.056-8.76-41.857-9.876-41.631-1.287-5.085c-.163-.635-1.147-.365-.984.271" class="I"/><g fill="#5c5ab2"><path d="M405.908 181.141c3.808 1.203 6.751 4.335 8.701 7.82s3.063 7.367 4.379 11.137c3.381 9.684 8.276 19.223 8.127 29.479-.045 3.189-.668 6.541-2.739 8.969-2.288 2.684-5.895 3.763-9.293 4.711-1.824.511-3.703 1.025-5.587.828-2.935-.305-5.483-2.348-7.023-4.865s-2.199-5.472-2.604-8.395c-1.072-7.747-.521-15.616.031-23.417.547-7.719 1.153-15.663 4.585-22.596"/><path d="M366.567 174.123c-7.025 1.96-16.657 5.447-22.808 9.369-.957.609-.387 1.915-.915 2.919-1.163 2.205 1.629 3.683 2.575 5.989 2.591 6.312 1.337 13.481 2.288 20.237 1.423 10.123 7.812 19.44 7.152 29.64-.052.807-.14 1.66.221 2.383.639 1.273 2.308 1.539 3.727 1.643a784.53 784.53 0 0 0 38.132 1.861c.737.017 1.533.017 2.135-.409.747-.531.947-1.535 1.107-2.437a69.72 69.72 0 0 1 4.188-14.407c1.933-4.693 4.408-9.271 5.073-14.303.295-2.231.223-4.492.151-6.741l-.689-21.557c-.04-1.235-.096-2.527-.723-3.591-.645-1.092-1.792-1.772-2.905-2.38-5.157-2.817-10.617-5.077-16.256-6.731-1.131-.331-2.315-.641-3.475-.435-1.692.3-2.988 1.619-4.465 2.5-3.704 2.212-11.699-.277-14.512-3.551"/></g><path d="M404.862 184.769c.207-1.988-1.196-3.813-2.828-4.968s-3.545-1.869-5.156-3.052-2.952-3.076-2.636-5.051c.131-.829.543-1.585.947-2.323l2.451-4.473c.387-.704.777-1.42.967-2.2.431-1.779-.229-3.621-.88-5.333l-2.133-5.609c-.117-.309-.235-.656-.108-.963.295-.711 1.369-.399 2.003.041a48.18 48.18 0 0 1 6.333 5.247c2.187 2.151 4.199 4.563 5.351 7.405.815 2.007 1.176 4.164 1.771 6.245 1.061 3.716 2.86 7.168 4.412 10.708 2.817 6.433 4.824 13.188 6.823 19.923 1.112 3.747 2.229 7.517 2.673 11.401.325 2.837.285 5.701.232 8.556-.085 4.487-.213 9.007-1.213 13.381-.576 2.528-2.079 5.473-4.672 5.437-1.955-.028-3.392-1.797-4.416-3.463-4.263-6.921-6.596-14.892-7.801-22.931s-2.001-19.852-2.117-27.98m-49.711 50.651c16.207-1.776 32.596 3.055 48.807 1.301 3.341-.361 7.203-.841 9.623 1.491 2.189 2.108 2.096 5.872.363 8.368s-4.713 3.868-7.696 4.449-6.048.485-9.08.676c-3.856.243-7.668.948-11.516 1.292a61.81 61.81 0 0 1-28.46-4.212" class="B"/><path d="M366.079 173.817s12.408 8.633 19.701 1.044c0 0 5.456 1.376 10.687 3.419 0 0-5.688 11.161-16.911 1.529 0 0-10.731 14.136-21.553-2.603l8.076-3.389" fill="#4e50ab"/><path d="M366.354 173.174s12.395 6.82 18.687.273l8.484 3.625c0 0-4.907 9.629-14.588 1.321 0 0-9.257 12.195-18.593-2.247l6.011-2.973" fill="#9186cb"/><path d="M345.062 183.533s5.092 1.439 7.867 22.567 5.075 21.769 5.075 21.769 24.576 6.836 28.645 8.771l1.473 17.712s-35.3 1.293-46.932-2.724-5.121-54.919-5.121-54.919 2.3-14.403 8.993-13.176" fill="#5c5ab2"/><g class="I"><use xlink:href="#C"/><use xlink:href="#C" x="-9.222" y="19.281"/><path d="M360.843 219.902c.656 0 .657-1.02 0-1.02s-.657 1.02 0 1.02m-16.767 16.208c.656 0 .657-1.021 0-1.021s-.659 1.021 0 1.021"/><use xlink:href="#C" x="1.677" y="56.725"/><use xlink:href="#C" x="18.722" y="42.475"/><path d="M383.196 250.361c.659 0 .659-1.02 0-1.02s-.657 1.02 0 1.02m0-23.194c.659 0 .659-1.02 0-1.02s-.657 1.02 0 1.02m-15.088-19.001c.656 0 .657-1.021 0-1.021s-.659 1.021 0 1.021m-10.62-27.665c.657 0 .657-1.02 0-1.02s-.657 1.02 0 1.02"/><path d="M368.387 192.237c.656 0 .657-1.02 0-1.02s-.657 1.02 0 1.02m17.605 13.972c.656 0 .657-1.02 0-1.02s-.659 1.02 0 1.02m3.632-16.207c.657 0 .657-1.021 0-1.021s-.657 1.021 0 1.021m12.854-6.148c.657 0 .659-1.02 0-1.02s-.657 1.02 0 1.02m0 18.164c.657 0 .659-1.021 0-1.021s-.657 1.021 0 1.021m-1.398 19.84c.659 0 .66-1.02 0-1.02s-.657 1.02 0 1.02m.839 12.016c.657 0 .659-1.021 0-1.021s-.657 1.021 0 1.021m14.532 6.985c.656 0 .657-1.02 0-1.02s-.657 1.02 0 1.02"/></g><path d="M349.599 202.171l.991 12.852c.267 3.46.252 7.156 1.372 10.479.464 1.376 1.155 2.693 2.187 3.728 1.183 1.184 2.731 1.867 4.345 2.231 1.843.416 3.761.529 5.64.68 2.128.169 4.259.291 6.391.381 4.813.201 9.629.236 14.444.271.659.005.659-1.015 0-1.02-8.047-.059-16.161-.039-24.167-.963-1.749-.203-3.568-.547-5.047-1.56-1.232-.847-2.087-2.128-2.624-3.505-1.189-3.055-1.195-6.489-1.443-9.713l-1.068-13.86c-.051-.651-1.072-.656-1.021 0m-2.864 25.746c1.721 0 3.441.103 5.151.308.275.032.511-.259.511-.511 0-.303-.236-.477-.511-.511a43.46 43.46 0 0 0-5.151-.308c-.656 0-.657 1.02 0 1.021m51.983-25.255c1.824 8.624 3.661 17.349 3.588 26.207-.019 2.541-.201 5.08-.584 7.592-.097.643.885.92.983.272 1.364-8.945.232-17.977-1.459-26.796l-1.544-7.545c-.136-.643-1.12-.371-.984.271" fill="#4e50ab"/><path d="M160.07 458.511s-3.152 9.453-1.455 21.452c0 0-10.149 5.364-20.096-1.455 0 0 8.263-6.285 5.672-23.149l15.879 3.152" class="B"/><path d="M115.386 490.132c.297-.619.757-1.156 1.377-1.508 3.373-1.916 11.589-6.463 24.008-12.569 0 0 6.957 2.333 17.52 1.004 0 0 1.123 6.924.996 12.656-6.468.286-31.429 1.289-43.901.417" class="F"/><g class="E"><path d="M159.286 489.715l-.187 3.968h-44.074v-2.073c0-.525.141-1.021.36-1.477 12.472.872 37.433-.131 43.901-.417"/><use xlink:href="#B" x="-222.498" y="3.345"/><path d="M135.802 480.766a.78.78 0 0 1-1.56 0 .78.78 0 1 1 1.56 0m5.764-3.05a.78.78 0 1 1-1.56 0 .78.78 0 1 1 1.56 0"/></g><path d="M203.277 456.26s.889 17.022-1.424 24.697c0 0 10.149 5.364 20.096-1.453 0 0-7.113-2.456-3.811-29.849l-14.861 6.606" class="B"/><path d="M245.082 491.127c-.297-.62-.756-1.156-1.376-1.508-3.373-1.917-11.589-6.465-24.008-12.57 0 0-6.957 2.333-17.521 1.005 0 0-1.121 6.922-.995 12.656 6.468.285 31.428 1.29 43.9.418" class="F"/><g class="E"><path d="M201.182 490.709l.187 3.968h44.073v-2.073c0-.526-.14-1.021-.36-1.477-12.472.872-37.432-.132-43.9-.418"/><use xlink:href="#B" x="-131.084" y="-0.708"/><use xlink:href="#B" x="-117.747" y="5.722"/><path d="M227.375 482.597a.78.78 0 1 1-1.56 0 .78.78 0 0 1 1.56 0"/></g><path d="M190.689 117.716c2.089 8.225.376 17.077-3.301 24.728-.455.945-.949 2.025-.564 3.003.285.725.988 1.188 1.669 1.565 6.484 3.596 14.876 3.463 21.243-.339.203-.121.415-.26.507-.477.181-.433-.195-.879-.511-1.225-1.749-1.932-.832-4.232-1.592-6.725-3.259-10.689-1.247-20.417 2.529-30.677" class="B"/><path d="M191.512 127.456c3.256-.763 7.005-2.808 9.671-4.892 2.952-2.307 4.825-4.635 5.884-7.068.375-.861.957-1.561 1.663-2.116.568-1.925 1.221-3.859 1.94-5.812l-19.98 10.148c.641 2.528.845 7.147.823 9.74" class="C"/><path d="M195.985 76.806c-2.207-.335-4.425.519-6.36 1.632a23.88 23.88 0 0 0-10.672 13.128c-.715 2.185-1.108 4.464-1.413 6.743-.719 5.375-1.475 7.445-1.244 12.861.072 1.697 1.44 8.432 2.164 9.969.98 2.083 1.641 2.513 3.833 3.216s5.176.112 7.452-.235c6.796-1.035 13.084-5.059 16.869-10.797s5.013-13.101 3.291-19.757" class="B"/><path d="M227.227 81.278c-3.073.227-6.065.945-8.915 2.083.321-1.195 5.013-7.579 1.791-6.297-.309 1.72-5.72 8.089-2.904 8.203 1.272-1.733 13.161-2.228 10.028-3.988" class="D"/><path d="M198.118 112.396c-.46 1.871-3.061 2.839-5.811 2.161s-4.601-2.741-4.141-4.612 3.063-2.839 5.811-2.161 4.603 2.741 4.141 4.612" class="C"/><path d="M189.644 99.369c2.808-.132 6.393-.028 7.856 1.573.727.797 1.608.62.941-.24-2.068-2.672-4.86-2.94-8.955-3.063-.447-.013-.808.469-.761.98.039.421.471.871.919.749m-7.039-3.742c-1.553-.949-2.895-1.712-4.195-2.165l-.225.708c-.011.215-.04.423-.067.632 1.201.575 2.415 1.372 3.457 2.125.293.331.875.196 1.125-.12.303-.383.267-.959-.096-1.18m-2.176 4.447c-.175.708-.647 1.201-1.056 1.1s-.597-.756-.424-1.464.648-1.2 1.056-1.1.599.757.424 1.464m11.846 3.957c-.196.799-.805 1.336-1.361 1.199s-.844-.896-.648-1.693.807-1.337 1.361-1.2.845.895.648 1.695" class="D"/><path d="M182.417 107.92c-.435-.228-.785-.551-1.092-.919 1.665-.981 2.867-2.715 3.153-4.632.039-.26-.073-.523-.347-.595-.233-.06-.555.087-.593.347-.281 1.883-1.479 3.503-3.2 4.315-.233.111-.303.457-.175.665.433.704 1.033 1.276 1.767 1.659.553.291 1.041-.549.487-.84" fill="#f3633b"/><path d="M179.357 111.99s2.193 1.972 5.505 1.496c0 0-5.119 2.789-5.505-1.496" fill="#ef2d3b"/><path d="M224.09 96.296c-.357-5.08-.857-9.532-5.3-12.02l-.657-.719c-.452-3.087-2.305-5.853-4.703-7.852-1.645-1.373-3.54-2.396-5.524-3.221-9.48-3.383-22.756.021-30.321 2.565l1.821 2.763c-2.581.064-5.168-.117-7.715-.543 1.164 4.509 2.835 8.988 5.769 12.605 3.496 4.305 8.527 6.073 13.809 7.765s8.593 3.463 14.088 4.213c.616.085-.289 7.796.236 8.125.897.563 3.84-4.348 4.079-3.316 1.407 6.073-4.544 10.481-2.951 16.509 4.615-1.457 11.26-7.591 13.805-12.001s3.921-9.796 3.563-14.875" class="D"/><path d="M204.525 111.041c.683-2.008 3.647-6.347 5.413-7.519.519-.345 1.088-.644 1.707-.719s1.297.112 1.688.596c.301.373.4.867.449 1.341.204 1.965-.287 3.996-1.368 5.649s-2.741 2.921-4.621 3.525c-1.061.34-2.431.375-3.067-.54-.457-.659-.339-1.544-.201-2.335" class="B"/><path d="M206.51 108.9c-.1.42-.164.841-.077 1.196s.337.64.749.692c.395.049.896-.124 1.328-.405s.796-.664 1.087-1.06c.516-.707.815-1.521.6-2.093s-1.04-.791-1.84-.363c-.529.283-.939.768-1.288 1.233" class="C"/><path d="M219.141 229.447s14.439 22.303 16.308 48.345-3.831 192.554-3.831 192.554l-33.957 1.212s2.567-145.088-.661-163.085l-32.092 161.893-34.272-.934s28.748-220.449 40.11-238.26l48.396-1.725" class="E"/><path d="M196.925 286.925a.37.37 0 0 1-.136-.024c-1.928-.697-3.505-1.993-4.713-3.636-2.489-3.387-2.923-7.745-3.036-11.816a78.12 78.12 0 0 1 .896-14.061c.039-.259.219-.369.415-.369.296 0 .628.253.568.641a76.66 76.66 0 0 0-.776 7.485 76.09 76.09 0 0 0-.075 6.549c.064 2.059.207 4.127.691 6.133.785 3.256 2.652 6.512 5.817 7.897 2.26-8.951 1.243-18.325 2.852-27.38.045-.257.229-.368.427-.368.297 0 .625.253.557.64-1.643 9.241-.547 18.804-2.996 27.929-.055.207-.272.379-.491.379m32.052-13.525a.49.49 0 0 1-.188-.04c-7.925-3.247-12.776-10.572-17.22-17.504-.248-.385.105-.751.461-.751.156 0 .312.069.42.236 4.275 6.669 8.969 13.904 16.609 17.035.535.219.384 1.024-.083 1.024m-66.832-4.565c-.485 0-.809-.697-.289-.933 3.34-1.512 5.985-4.085 8.423-6.764 2.639-2.899 5.043-6.001 7.208-9.268a.49.49 0 0 1 .421-.233c.36 0 .713.365.46.748a78.31 78.31 0 0 1-7.368 9.475c-2.488 2.737-5.219 5.38-8.629 6.925a.55.55 0 0 1-.225.051m44.1 197.709c-.256 0-.504-.162-.493-.491a951.14 951.14 0 0 0 .616-33.138 951.2 951.2 0 0 0-1.759-58.789 950.86 950.86 0 0 0-5.429-58.863c-.04-.325.193-.485.447-.485s.533.163.573.485c1.355 10.965 2.523 21.953 3.496 32.959a950 950 0 0 1 3.364 58.718 950.31 950.31 0 0 1-.287 59.113c-.012.327-.273.491-.528.491m-51.456-3.767c-.255 0-.492-.161-.457-.487l.445-3.94c1.256-10.444 3.077-20.812 5.207-31.112 2.133-10.316 4.573-20.564 7.063-30.8l7.351-29.376c2.565-9.624 5.376-19.193 8.724-28.579 3.32-9.311 7.179-18.435 11.797-27.179a.44.44 0 0 1 .399-.255c.34 0 .693.369.483.771l-1.709 3.315c-4.437 8.84-8.119 18.04-11.303 27.4-3.181 9.352-5.872 18.861-8.36 28.418l-7.264 29.327c-2.473 10.237-4.869 20.497-6.927 30.828-2.056 10.321-3.769 20.714-4.884 31.181-.035.325-.308.487-.564.487" fill="#9b6a52"/><g class="H"><path d="M171.708 141.644c-4.54 1.612-7.915 6.416-10.795 11.205-5.056 8.409-9.431 17.492-13.032 27.059-.267.709-.536 1.497-.379 2.259.161.783.724 1.3 1.248 1.748a362.95 362.95 0 0 0 20.56 16.321c.368.271.823.544 1.192.28.3-.213.408-.689.487-1.119 3.167-17.401 2.591-35.52 1.997-53.373m54.363-5.367c5.835 1.611 10.172 6.415 13.873 11.204a154 154 0 0 1 16.749 27.059c.344.709.689 1.497.488 2.259-.208.783-.932 1.3-1.605 1.748a467.9 467.9 0 0 1-26.424 16.323c-.473.269-1.057.543-1.533.28-.385-.213-.524-.691-.624-1.12-4.071-17.401-3.331-35.519-2.568-53.373l1.644-4.379"/><path d="M190.182 134.81c3.579 1.437 10.855 2.076 14.464.72.861-.324 1.72-.729 2.639-.747.663-.012 1.311.179 1.947.369l16.743 5.007c.779.233 1.605.496 2.124 1.123s.623 1.484.707 2.292l1.731 16.595c.508 4.865 1.016 9.737 1.076 14.629.061 4.865-.32 9.725-.62 14.583-1.228 19.9-1.081 39.853-1.307 59.789-.011.84-.081 1.807-.759 2.304-.345.255-.785.331-1.208.399-21.411 3.396-43.264.625-64.764-2.148.377-5.105.756-10.225.472-15.336-.264-4.763.819-23.577.456-28.333-.651-8.517-1.696-2.964-.821-11.461l4.961-48.177c.124-1.204.269-2.467.967-3.456.729-1.035 1.941-1.599 3.105-2.097a115.8 115.8 0 0 1 18.088-6.053"/></g><path d="M206.429 253.441h0m.003 0c7.032 0 14.049-.437 21.016-1.525-6.968 1.088-13.983 1.525-21.016 1.525" fill="#21332a"/><path d="M229.405 250.879h0c.237-.503.273-1.135.28-1.709l.151-18.127-.151 18.127c-.007.575-.043 1.207-.28 1.709m-65.252-1.001l-.185-.023.185.023m-.765-.099l-.132-.016.132.016m-.212-.027l-.087-.011.087.011m.351-11.589l-.1-3.775-.013-.291.013.291.1 3.775" fill="#7bb09b"/><path d="M206.429 253.441c-14.093 0-28.256-1.756-42.276-3.563l-.185-.023-.58-.076-.132-.016c-.027-.004-.053-.007-.08-.011a1.71 1.71 0 0 0-.087-.011c-.044-.007-.089-.012-.135-.017h0c.285-3.848.571-7.707.572-11.561a67.26 67.26 0 0 0-.1-3.775l-.013-.291a39.44 39.44 0 0 1-.027-1.436c1.265 2.824 2.961 5.424 5.348 7.623 5.001 4.608 12.604 5.589 19.828 5.589 3.213 0 6.352-.195 9.152-.351 9-.503 20.673-1.149 26.249-9.328 3.32-4.872 4.739-10.915 5.921-16.608l.077-.341-.127 11.797-.151 18.127c-.007.575-.043 1.207-.28 1.709-.111.233-.264.437-.479.595-.345.255-.785.331-1.208.399h0l-.271.043c-6.967 1.088-13.984 1.525-21.016 1.525" fill="#278761"/><path d="M256.673 183.046l.181-.12c.673-.448 1.397-.965 1.605-1.748a1.86 1.86 0 0 0 .06-.475 1.86 1.86 0 0 1-.06.475c-.208.783-.932 1.3-1.605 1.748l-.181.12m1.299-4.127l-.053-.112.053.112m-.053-.112l-.821-1.668.821 1.668m-.829-1.684l-.041-.083.041.083m-.059-.115l-.027-.055.027.055" fill="#7bb09b"/><path d="M233.433 197.495c6.64-7.691 13.564-16.276 12.941-26.489-.312-5.112-.983-10.544-2.521-15.631a154.07 154.07 0 0 1 13.151 21.579.69.69 0 0 1 .027.055c.005.011.012.021.017.032.013.028.028.056.041.083l.829 1.684h0l.053.112h0c.273.563.547 1.175.548 1.784a1.86 1.86 0 0 1-.06.475c-.208.783-.932 1.3-1.605 1.748l-.181.12c-7.6 5.045-15.357 9.856-23.24 14.449" fill="#278761"/><path d="M152.021 181.17c.789-2.045 1.713-4.036 2.757-5.964.313-.577-.567-1.093-.88-.515a53.21 53.21 0 0 0-2.863 6.207c-.099.257.111.56.357.628.288.08.528-.099.628-.356m76.247 8.203l3.451 7.295c.108.256.48.307.697.183.265-.149.291-.445.184-.697l-3.451-7.295c-.307-.581-1.187-.067-.881.515m5.094-3.301a67.45 67.45 0 0 1 3.739 7.075c.271.596 1.151.079.88-.516a67.17 67.17 0 0 0-3.737-7.073c-.34-.561-1.223-.049-.881.515m5.591-4.237a46.8 46.8 0 0 0 3.121 7.075c.313.576 1.196.063.881-.515a45.02 45.02 0 0 1-3.017-6.832c-.215-.616-1.2-.351-.985.272m5.062-3.067c1.177 1.959 2.235 3.987 3.168 6.072.113.251.479.311.699.183.259-.152.296-.445.183-.697-.933-2.087-1.991-4.113-3.168-6.072-.337-.563-1.22-.051-.881.515m6.357-3.33a47.29 47.29 0 0 1 2.829 5.639c.107.253.337.436.627.356.24-.067.464-.372.357-.628a49.37 49.37 0 0 0-2.932-5.883c-.332-.565-1.215-.053-.881.516m-83.341 64.314l-.871 8.191c-.069.652.952.647 1.021 0l.869-8.191c.069-.652-.952-.647-1.02 0m6.947 8.476a54.36 54.36 0 0 0 .813-8.471c.011-.656-1.011-.656-1.021 0-.047 2.749-.301 5.491-.775 8.199-.112.644.871.919.983.272m7.21.628l.617-9.104c.045-.656-.976-.653-1.02 0l-.617 9.104c-.045.656.976.653 1.02 0m8.74.603c-.265-3.112-.035-6.235.699-9.273.153-.637-.831-.909-.985-.271-.752 3.121-1.005 6.345-.733 9.544.055.651 1.076.657 1.02 0m7.719 1.061l-.008-9.852c-.024-.655-1.044-.659-1.02 0l.008 9.852c-.024.656.996.656 1.02 0m8.981-.452a50.85 50.85 0 0 0 .379-8.64c-.027-.655-1.047-.657-1.02 0a50.71 50.71 0 0 1-.38 8.64c-.035.276.261.508.511.511.305.004.476-.239.511-.511m7.441.759l.645-9.557c.044-.656-.977-.653-1.021 0l-.644 9.557c-.045.656.975.652 1.02 0m7.884-9.475v8.476c0 .556 1.021.557 1.021 0v-8.476c0-.556-1.021-.556-1.021 0m-35.353-99.611a43.64 43.64 0 0 0 3.248-4.208c.155-.228.043-.565-.184-.697-.252-.148-.543-.045-.697.183a41.72 41.72 0 0 1-3.088 4.001c-.181.208-.204.517 0 .721.184.185.539.209.721 0m6.402-2.034l-.605 5.003c-.033.275.257.511.509.511.304 0 .477-.236.511-.511l.605-5.003c.033-.273-.257-.509-.509-.509-.304 0-.477.235-.511.509m5.377.58a31.68 31.68 0 0 1 .512 5.029c.016.656 1.036.659 1.02 0-.039-1.779-.225-3.551-.549-5.3-.049-.271-.377-.425-.627-.356-.285.079-.407.356-.356.627m5.154-1.234a35.02 35.02 0 0 1 2.381 4.728c.105.253.339.435.628.356.241-.067.461-.372.356-.628-.705-1.717-1.528-3.379-2.484-4.971-.337-.563-1.22-.051-.881.515m4.556-2.059a28.39 28.39 0 0 1 4.983 4.228c.449.48 1.171-.243.721-.721a29.56 29.56 0 0 0-5.189-4.387c-.548-.365-1.06.517-.515.88" fill="#1a6244"/><path d="M169.041 145.474c2.567-10.644 4.869-17.401 10.459-26.815.571-.961 1.703-2.048 2.612-1.4.675.481.532 1.505.316 2.304l-2.065 7.648c-.167.621-.336 1.264-.253 1.903.228 1.759 2.135 2.683 3.723 3.472s3.328 2.267 2.844 3.975c-.201.712-.76 1.255-1.269 1.792-3.907 4.115-5.993 9.653-7.111 15.215l-4.639 24.523c-1.92 14.151-4.804 24.661-13.984 31.733-1.156.891-3.043 1.305-4.425.833-.589-.201-1.048-.667-1.453-1.141-3.428-4.009-4.528-9.609-4.069-14.865s2.32-10.276 4.236-15.192c3.621-9.291 10.396-21.257 15.08-33.984m90.51 67.139c-2.08-8.879-5.067-17.54-8.856-25.835l-15.747 9.737a241.07 241.07 0 0 1 6.147 14.603c.859 2.247 1.696 4.62 1.361 7.001-.255 1.805-1.164 3.444-2.073 5.025-6.764 11.763-14.44 23.001-22.936 33.583-.493.613-1.016 1.304-.976 2.092.031.589.377 1.111.712 1.599l4.296 6.264c.247.361.559.759.995.771.413.013.743-.329 1.012-.643l20.576-23.953c5.036-5.861 10.108-11.776 13.845-18.541 1.113-2.013 2.12-4.157 2.289-6.452.131-1.767-.241-3.527-.645-5.251" class="B"/><defs ><path id="B" d="M352.458 479.923a.78.78 0 1 1-1.561 0 .78.78 0 1 1 1.561 0"/><path id="C" d="M349.106 194.194c.656 0 .657-1.021 0-1.021s-.657 1.021 0 1.021"/></defs></svg>