<svg width="24" height="24" viewBox="0 0 24 24" fill="none" xmlns="http://www.w3.org/2000/svg">
    <path d="M5 7.33439H19" stroke="#11064A" stroke-width="1.5" stroke-linecap="round" stroke-linejoin="round"/>
    <path d="M8.88802 7.3344V5.77807C8.88802 5.57384 8.92825 5.37161 9.0064 5.18293C9.08456 4.99425 9.19911 4.82281 9.34352 4.6784C9.48793 4.53399 9.65937 4.41943 9.84805 4.34128C10.0367 4.26313 10.239 4.2229 10.4432 4.2229H13.5547C13.7589 4.2229 13.9611 4.26313 14.1498 4.34128C14.3385 4.41943 14.5099 4.53399 14.6544 4.6784C14.7988 4.82281 14.9133 4.99425 14.9915 5.18293C15.0696 5.37161 15.1099 5.57384 15.1099 5.77807V7.3344M17.4432 7.3344V18.2229C17.4432 18.6354 17.2793 19.0309 16.9877 19.3226C16.696 19.6142 16.3005 19.7781 15.888 19.7781H8.10985C7.6974 19.7781 7.30184 19.6142 7.01019 19.3226C6.71853 19.0309 6.55469 18.6354 6.55469 18.2229V7.3344H17.4432Z" stroke="#11064A" stroke-width="1.5" stroke-linecap="round" stroke-linejoin="round"/>
</svg>
