<?xml version="1.0" standalone="no"?>
<!DOCTYPE svg PUBLIC "-//W3C//DTD SVG 20010904//EN"
 "http://www.w3.org/TR/2001/REC-SVG-20010904/DTD/svg10.dtd">
<svg version="1.0" xmlns="http://www.w3.org/2000/svg"
 width="1216.000000pt" height="1216.000000pt" viewBox="0 0 1216.000000 1216.000000"
 preserveAspectRatio="xMidYMid meet">
<metadata>
Created by potrace 1.14, written by Peter Selinger 2001-2017
</metadata>
<g transform="translate(0.000000,1216.000000) scale(0.100000,-0.100000)"
fill="#000000" stroke="none">
<path d="M3637 10684 c-1 -2 -22 -5 -47 -8 -90 -11 -167 -29 -245 -56 -33 -11
-65 -22 -70 -23 -27 -6 -215 -101 -215 -109 0 -4 -7 -8 -15 -8 -8 0 -15 -5
-15 -12 0 -6 -3 -8 -6 -5 -4 4 -19 -4 -34 -16 -16 -12 -43 -33 -62 -46 -18
-14 -67 -59 -108 -101 -95 -97 -126 -136 -152 -190 -7 -14 -15 -27 -18 -30 -5
-5 -38 -72 -59 -120 -17 -41 -42 -120 -44 -141 -1 -10 -4 -19 -7 -19 -3 0 -6
-10 -6 -22 -3 -52 -9 -98 -14 -98 -7 0 -4 -195 5 -260 13 -103 20 -145 25
-160 1 -3 3 -9 4 -15 8 -43 53 -180 67 -205 6 -11 9 -7 9 15 1 17 3 39 5 50 2
11 7 38 10 61 3 22 12 65 21 94 9 30 17 61 19 71 7 36 70 167 116 241 60 97
56 93 165 202 77 77 140 126 294 226 35 23 167 83 176 81 4 -2 10 1 13 6 6 9
155 59 199 68 13 2 31 6 40 9 9 3 32 8 50 11 17 3 46 7 64 10 17 3 62 8 101
10 38 2 77 7 87 10 10 3 21 1 24 -4 4 -6 18 -6 37 -1 18 5 40 5 55 0 18 -7 23
-7 18 2 -5 7 -3 8 6 3 8 -5 32 -10 54 -11 84 -4 249 -33 296 -51 8 -3 21 -7
29 -9 27 -5 185 -67 216 -84 17 -9 55 -30 85 -46 30 -16 57 -31 60 -34 3 -3
26 -19 52 -35 27 -17 48 -33 48 -37 0 -5 6 -8 14 -8 8 0 16 -3 18 -7 6 -16 79
-73 91 -72 9 0 9 2 0 6 -7 2 -13 9 -13 15 0 16 -81 172 -94 180 -6 4 -6 8 -1
8 6 0 6 3 0 8 -6 4 -32 36 -57 72 -41 57 -168 198 -168 186 0 -2 -12 8 -27 22
-16 15 -41 36 -57 47 -15 11 -34 26 -41 33 -8 6 -16 12 -19 12 -3 0 -34 18
-68 40 -105 68 -305 159 -408 186 -108 28 -141 35 -174 39 -21 2 -57 7 -80 11
-37 6 -244 12 -249 8z"/>
<path d="M7916 10683 c-2 -2 -25 -6 -52 -9 -27 -2 -56 -6 -64 -9 -8 -2 -31 -7
-50 -10 -52 -9 -109 -24 -166 -45 -29 -10 -55 -16 -58 -13 -3 4 -6 1 -6 -5 0
-7 -7 -12 -14 -12 -18 0 -141 -57 -211 -98 -27 -16 -61 -35 -75 -43 -14 -8
-27 -16 -30 -19 -3 -3 -32 -23 -64 -45 -81 -54 -296 -269 -296 -295 0 -6 -4
-10 -10 -10 -5 0 -10 -4 -10 -10 0 -5 -15 -33 -33 -62 -19 -29 -44 -75 -56
-103 -12 -27 -27 -58 -32 -67 -14 -27 2 -21 41 15 72 66 290 206 330 212 3 1
19 8 36 18 17 9 34 13 38 10 3 -4 6 0 6 7 0 7 3 10 7 7 3 -4 11 -3 17 2 13 10
150 52 183 56 12 2 26 6 31 9 9 5 25 9 112 22 129 19 450 20 450 1 0 -5 4 -6
9 -3 13 8 199 -31 271 -56 8 -3 38 -14 65 -23 91 -33 230 -103 320 -164 86
-59 104 -74 193 -161 94 -92 132 -135 132 -149 0 -5 3 -11 8 -13 11 -5 72
-103 72 -116 0 -7 5 -12 11 -12 5 0 7 -4 4 -10 -3 -5 -1 -10 4 -10 6 0 10 -3
9 -7 -1 -5 6 -25 15 -47 9 -21 17 -44 17 -52 0 -7 4 -15 9 -18 8 -6 32 -87 37
-131 1 -11 3 -20 4 -20 5 0 18 -93 19 -144 1 -33 9 -38 15 -9 2 7 7 22 11 33
4 11 14 35 21 52 18 46 52 208 61 289 12 121 7 279 -12 364 -4 14 -9 39 -11
55 -3 17 -17 57 -30 91 -13 33 -24 65 -24 71 0 6 -7 16 -15 23 -9 7 -13 15
-11 18 3 2 -10 29 -29 58 -19 30 -35 58 -35 63 0 5 -3 11 -7 13 -5 2 -24 23
-44 48 -51 63 -108 121 -155 156 -21 16 -43 34 -49 40 -16 17 -117 81 -187
118 -126 66 -307 124 -446 142 -51 7 -271 12 -276 7z"/>
<path d="M5715 9383 c-44 -13 -89 -26 -99 -28 -23 -5 -85 -24 -106 -32 -8 -3
-23 -7 -32 -9 -9 -2 -54 -15 -100 -28 -46 -14 -108 -32 -138 -41 -30 -9 -62
-19 -70 -22 -8 -3 -22 -7 -30 -8 -16 -2 -184 -52 -210 -62 -8 -3 -22 -7 -30
-9 -8 -2 -85 -24 -170 -49 -85 -26 -184 -55 -220 -64 -36 -10 -128 -37 -205
-60 -77 -23 -151 -44 -164 -47 -13 -3 -34 -10 -45 -16 -12 -6 -22 -10 -24 -9
-1 2 -35 -7 -75 -19 -39 -12 -76 -23 -82 -24 -5 -1 -19 -5 -30 -9 -20 -7 -20
-15 -19 -914 1 -500 2 -915 3 -924 1 -14 17 -12 129 17 70 19 136 36 147 38
11 2 40 9 65 15 25 7 52 13 61 15 9 3 33 9 53 14 20 6 36 8 36 5 0 -3 6 0 13
6 8 6 17 8 20 4 4 -3 13 0 22 7 8 7 15 10 15 7 0 -3 26 2 58 10 31 8 64 17 72
19 8 2 35 8 60 15 25 6 52 12 60 14 8 2 40 10 70 19 30 8 66 17 80 20 14 2
134 32 268 65 134 34 253 63 265 65 12 3 23 5 25 7 1 1 5 2 10 4 34 9 61 16
85 20 63 12 81 17 101 27 12 6 21 10 21 8 0 -2 23 2 51 9 29 7 58 14 65 15 85
19 77 9 80 99 0 6 0 41 0 77 0 36 0 72 0 80 1 8 1 38 0 65 0 28 -1 57 0 65 1
32 0 227 -2 260 0 19 -1 40 -1 45 0 6 1 204 1 440 1 665 1 676 1 749 1 37 0
70 -2 71 -2 1 -39 -8 -83 -22z"/>
<path d="M6082 9323 c0 -48 -1 -92 -2 -98 -1 -5 -2 -14 0 -20 1 -8 0 -175 -1
-210 -1 -5 0 -82 0 -170 0 -88 0 -169 0 -180 0 -11 0 -54 0 -95 0 -41 0 -79 0
-85 -1 -5 0 -71 0 -145 0 -74 0 -142 0 -150 0 -13 0 -189 0 -255 1 -408 2
-435 14 -442 6 -4 17 -8 22 -9 6 -1 39 -9 75 -18 36 -9 74 -18 85 -21 11 -2
35 -9 54 -14 19 -6 37 -9 39 -6 3 3 10 1 16 -4 6 -5 25 -12 41 -15 35 -7 101
-22 130 -30 39 -11 110 -28 130 -32 11 -2 56 -13 100 -25 44 -11 89 -22 100
-24 11 -2 20 -4 20 -5 0 -1 7 -3 15 -5 8 -2 35 -8 60 -15 25 -6 63 -16 85 -21
54 -12 76 -18 100 -24 11 -3 52 -12 90 -21 39 -8 77 -18 85 -21 8 -3 23 -8 34
-10 10 -2 64 -15 120 -29 55 -14 108 -27 116 -29 8 -2 71 -17 140 -35 69 -17
135 -33 147 -36 12 -2 33 -8 45 -12 13 -5 34 -8 48 -8 l25 1 1 910 c0 501 -1
915 -4 922 -2 6 -20 15 -40 19 -20 4 -39 8 -42 9 -3 0 -35 11 -72 23 -37 12
-75 22 -86 22 -10 0 -22 4 -28 9 -5 6 -20 12 -34 14 -42 8 -84 19 -95 26 -5 3
-14 6 -20 7 -5 1 -66 18 -135 39 -69 20 -132 38 -140 40 -8 2 -76 22 -150 45
-74 22 -144 43 -155 45 -11 3 -45 12 -75 21 -30 9 -84 25 -120 36 -36 10 -78
23 -95 29 -16 6 -39 12 -50 14 -18 4 -100 28 -182 54 -18 5 -33 8 -33 5 0 -2
-13 2 -30 11 -16 8 -32 15 -35 15 -3 0 -6 0 -7 1 -2 0 -10 2 -18 4 -8 1 -55
15 -105 30 -49 15 -103 30 -120 35 -16 4 -37 11 -47 15 -14 6 -16 -4 -16 -82z"/>
<path d="M1928 8274 c-3 -2 -14 -6 -24 -8 -11 -3 -32 -9 -49 -16 -16 -6 -31
-11 -32 -11 -2 0 -8 -1 -15 -3 -7 -2 -22 -6 -33 -9 -11 -3 -114 -33 -230 -67
-115 -34 -239 -70 -275 -81 -36 -10 -89 -25 -117 -34 -29 -8 -74 -21 -100 -29
-27 -7 -60 -18 -74 -24 -15 -6 -29 -9 -32 -6 -2 3 -20 -2 -38 -10 -19 -8 -86
-28 -149 -46 -63 -17 -126 -36 -140 -41 -14 -5 -34 -11 -45 -14 -21 -4 -66
-17 -210 -60 -49 -15 -119 -35 -155 -45 -36 -10 -81 -23 -100 -30 -19 -6 -43
-13 -53 -15 -10 -2 -27 -7 -37 -10 -19 -6 -19 -32 -19 -840 l0 -833 27 3 c15
2 54 10 87 19 33 8 95 23 138 34 42 11 77 17 77 14 0 -2 6 1 14 7 8 6 18 11
22 10 5 -1 12 0 17 1 4 1 10 3 15 4 25 6 70 17 87 21 11 2 45 11 75 19 30 8
66 17 80 20 14 3 144 35 290 71 146 37 273 68 283 70 10 2 27 7 37 10 10 3 28
8 39 10 31 7 40 9 261 65 113 28 216 54 230 56 14 3 34 8 45 11 11 4 25 8 30
9 36 9 62 16 75 18 13 3 15 109 15 880 1 483 -2 879 -6 881 -3 3 -8 2 -11 -1z"/>
<path d="M9936 7398 c1 -480 2 -876 3 -879 0 -3 7 -6 14 -6 6 0 67 -15 134
-32 67 -17 130 -32 140 -34 10 -2 25 -7 33 -10 8 -3 47 -13 85 -21 39 -9 77
-18 85 -20 22 -6 261 -67 285 -73 11 -2 29 -6 40 -8 11 -2 29 -6 40 -9 199
-52 304 -78 320 -80 11 -1 25 -4 30 -8 6 -3 24 -9 40 -12 62 -13 76 -16 98
-22 12 -3 38 -9 57 -14 19 -5 59 -15 88 -23 29 -9 55 -16 57 -16 3 -1 6 -1 8
-2 3 -1 30 -7 57 -12 14 -3 81 -20 150 -37 69 -18 130 -33 135 -34 6 -1 15 -5
21 -9 24 -14 24 -9 23 478 0 33 1 88 1 122 1 34 -1 67 -5 73 -3 5 -1 10 5 10
6 0 8 5 5 10 -4 6 -6 77 -5 158 1 81 1 152 1 157 0 6 0 46 -1 90 0 44 0 108 0
142 1 34 -1 67 -5 73 -3 5 -1 10 5 10 6 0 8 5 5 11 -4 5 -6 83 -6 173 l1 162
-33 11 c-37 13 -117 37 -132 39 -5 0 -17 4 -25 7 -16 6 -103 33 -155 47 -16 5
-77 22 -135 40 -58 17 -112 33 -120 35 -28 7 -165 46 -178 50 -7 3 -14 5 -17
5 -3 1 -17 5 -32 10 -57 17 -208 62 -218 64 -5 2 -17 5 -25 8 -8 3 -35 11 -60
18 -67 19 -112 32 -140 41 -14 4 -59 17 -100 29 -41 12 -82 24 -90 27 -8 3
-26 8 -40 10 -13 2 -30 9 -37 15 -7 6 -13 8 -13 5 0 -3 -44 8 -97 25 -54 16
-105 31 -113 33 -8 2 -40 12 -70 21 -30 9 -69 18 -85 21 l-31 5 2 -874z"/>
<path d="M5700 7209 c-19 -5 -46 -12 -60 -15 -14 -2 -33 -7 -42 -10 -10 -3
-30 -8 -45 -11 -35 -6 -44 -9 -63 -15 -13 -5 -100 -25 -140 -32 -8 -2 -22 -6
-30 -9 -8 -3 -76 -20 -150 -37 -74 -17 -171 -40 -215 -51 -116 -29 -118 -30
-140 -33 -11 -2 -60 -14 -110 -26 -191 -47 -330 -80 -360 -85 -11 -3 -51 -13
-90 -23 l-70 -18 0 -2625 0 -2624 793 -1 792 -1 0 2814 c0 2673 -1 2813 -17
2812 -10 -1 -34 -5 -53 -10z"/>
<path d="M6238 7214 c-3 -5 -4 -1271 -4 -2814 l1 -2805 792 -1 792 -1 -2 2625
-2 2626 -30 8 c-16 5 -40 11 -51 13 -12 3 -97 23 -190 45 -159 38 -199 47
-216 50 -4 1 -31 8 -60 16 -29 8 -63 17 -76 20 -13 2 -60 14 -105 25 -45 11
-93 22 -107 25 -14 3 -52 12 -85 21 -33 8 -71 17 -85 20 -14 2 -46 10 -72 18
-27 8 -48 12 -48 9 0 -3 -8 0 -17 5 -10 5 -31 11 -48 14 -29 5 -247 56 -310
73 -45 12 -73 15 -77 8z"/>
<path d="M2175 6363 c-27 -8 -63 -17 -80 -20 -16 -3 -37 -9 -46 -14 -9 -4 -19
-6 -22 -3 -3 3 -12 2 -19 -2 -7 -4 -19 -9 -28 -10 -8 -1 -64 -14 -125 -29 -60
-14 -119 -28 -130 -31 -37 -7 -60 -13 -182 -43 -67 -17 -132 -32 -145 -35 -13
-2 -52 -12 -88 -21 -64 -17 -80 -21 -130 -31 -14 -3 -29 -7 -35 -8 -5 -2 -21
-6 -35 -9 -32 -8 -229 -56 -255 -62 -11 -3 -51 -11 -89 -20 -37 -8 -72 -17
-76 -20 -4 -3 -23 -7 -41 -10 -19 -3 -65 -14 -104 -23 l-70 -18 0 -2180 0
-2179 893 -1 c490 0 893 2 893 5 1 3 2 1080 3 2394 l1 2387 -20 -1 c-11 -1
-42 -8 -70 -16z"/>
<path d="M9740 6373 c-1 -11 -1 -4699 0 -4744 l0 -35 895 0 895 0 0 170 c1
221 1 4040 0 4127 l0 66 -102 23 c-57 13 -107 25 -113 26 -32 9 -96 23 -120
28 -5 1 -16 5 -22 9 -7 5 -13 6 -13 3 0 -2 -15 0 -32 5 -18 5 -49 12 -68 15
-19 3 -38 8 -42 11 -5 2 -16 6 -25 8 -20 4 -134 31 -198 46 -22 5 -49 11 -60
14 -11 2 -67 16 -125 31 -58 14 -114 27 -125 29 -11 1 -27 5 -35 9 -8 3 -35
10 -60 15 -25 5 -54 12 -65 14 -75 19 -113 28 -135 33 -14 3 -106 25 -205 49
-231 55 -245 58 -245 48z"/>
</g>
</svg>
